<svg version="1.1" xmlns="http://www.w3.org/2000/svg" viewBox="0 0 585.2958308380367 372.57233932463123" width="585.2958308380367" height="372.57233932463123">
  <!-- svg-source:excalidraw -->
  
  <defs>
    <style>
      @font-face {
        font-family: "Virgil";
        src: url("https://excalidraw.com/Virgil.woff2");
      }
      @font-face {
        font-family: "Cascadia";
        src: url("https://excalidraw.com/Cascadia.woff2");
      }
    </style>
  </defs>
  <rect x="0" y="0" width="585.2958308380367" height="372.57233932463123" fill="#ffffff"></rect><g stroke-linecap="round" transform="translate(169.661677187887 15.619885738248513) rotate(0 95.40280852951338 95.40280852951332)"><path d="M-0.31 1.13 L189.21 1.66 L189.47 188.98 L0.61 192" stroke="none" stroke-width="0" fill="#4c6ef5"></path><path d="M-0.76 -0.04 C68.14 -2.64, 137.09 -0.54, 192.79 0.29 M0.28 -0.77 C57.32 0.7, 114.23 0.67, 190.42 0 M192.78 1.36 C188.02 48.62, 188.28 94.66, 189.2 190.41 M191.2 -0.1 C192.29 70.17, 191.11 139.67, 190.44 190.01 M190.87 189.79 C134.63 192.03, 78.29 191.31, -1.32 189.32 M190.03 190.1 C136.52 190.13, 81.87 188.87, 0.22 189.93 M1.21 189.49 C-0.24 131.36, -0.44 70.14, 1.48 -1.63 M-0.81 190.18 C-2.51 131.71, -2.05 73.71, -0.79 -0.46" stroke="#000000" stroke-width="1" fill="none"></path></g><g stroke-linecap="round" transform="translate(195.57355110948333 33.28707250297339) rotate(0 68.9020283824263 25.32296769610548)"><path d="M-0.36 0.46 L136.91 0.83 L137.96 52.1 L-1.17 48.76" stroke="none" stroke-width="0" fill="#000000"></path><path d="M0.89 0.58 C35.42 -0.97, 69.16 -0.78, 138.09 1.65 M0.67 0.29 C45.73 0.58, 91.05 0.09, 137.87 0.98 M136.51 -1.12 C137.03 12.36, 135.81 23.93, 137.49 51.78 M136.89 0.31 C138.82 10.8, 138.91 22.06, 138.14 50.03 M138.77 50.18 C100.41 52.04, 63.17 49.6, 1.46 50.11 M138.6 50.84 C85.95 49.13, 34.48 49.44, 0.45 51 M0.95 50.95 C-0.76 34.3, 1.55 19.67, -1.07 -1.02 M0.91 51.06 C0.09 37.96, 0.72 24.09, -0.87 -0.02" stroke="#ffff" stroke-width="1" fill="none"></path></g><g stroke-linecap="round" transform="translate(214.2959492414032 10) rotate(0 52.458830909939024 4.904469162571559)"><path d="M0 0 C0 0, 0 0, 0 0 M0 0 C0 0, 0 0, 0 0 M-0.66 7.03 C1.95 3.89, 3.23 2.02, 5.69 1.16 M-0.06 6.6 C1.42 4.06, 3.84 1.85, 4.87 -0.04 M2.1 11.11 C3.81 8.17, 6.21 2.94, 9.99 -0.43 M1.8 10.06 C4.4 6.16, 7.51 3.68, 10.6 -0.45 M5.36 11.88 C10.07 7.4, 13.58 3.96, 15.59 0.8 M6.34 11.54 C10.23 7.29, 14.1 3.18, 15.23 -0.2 M11.01 10.89 C14.37 7.08, 18.03 3.36, 20.69 0.93 M11.49 10.37 C14.63 6.71, 17.79 3.77, 21.06 -0.47 M18.03 10.01 C18.59 7.05, 21.12 3.35, 26.59 -0.15 M17.65 11.37 C20.12 7.36, 24.01 2.28, 25.84 0.76 M23.82 11.59 C25.5 5.99, 27.51 3.83, 32.56 -0.28 M22.72 10.98 C25.19 7.71, 28.29 4.24, 31.38 -0.27 M27.57 11.63 C30.3 7.51, 33.65 3.6, 36.44 1.01 M27.2 10.44 C31.74 7.07, 35.26 2.96, 37.39 0.08 M32.35 12.5 C33.07 10.3, 36.57 5.26, 43 0.37 M32.36 10.58 C34.37 8.39, 36.42 5.87, 43.2 -0.1 M37.85 11.89 C41.85 7.21, 42.89 4.66, 47.57 0.48 M38.92 10.28 C41.48 7.08, 44.38 4.98, 47.01 0.71 M44.16 9.86 C45.93 8.36, 48.44 6.19, 53.1 -0.13 M42.61 11.17 C46.06 6.71, 50.44 2.47, 53.63 0.25 M48.12 9.8 C51.37 8.44, 53.42 3.8, 59.23 -0.24 M49.59 10.17 C52.13 7.15, 54.69 5.06, 57.97 -0.19 M52.78 11.18 C56.22 7.99, 62.26 3.58, 65.27 -0.72 M54.37 10.96 C56.75 7.74, 60.47 3.56, 64 0.07 M58.66 11.06 C63.45 7.74, 65.36 3.71, 67.47 0.02 M60.05 11.26 C62.31 8.19, 64.44 5.21, 68.48 -0.08 M63.92 10.8 C68.31 6.27, 71.52 1.28, 73.93 0.82 M65.26 11.65 C68.32 7.49, 71.16 2.65, 74.01 -0.83 M70.74 11.3 C74.62 5.71, 77.64 1.89, 79.13 -0.65 M69.57 11.02 C72.21 8.62, 75.23 5.59, 78.72 0.59 M73.87 11.7 C79 8.2, 81.43 3.82, 83.58 -1.11 M74.98 11.72 C77.83 8.28, 80.38 6.62, 84.68 -0.59 M81.05 10 C82.55 7.75, 85.84 4.7, 89.49 1.11 M81.49 10.23 C83.13 7.51, 86.5 3.46, 89.39 -0.21 M84.47 10.57 C88.21 7.95, 89.59 6.63, 96.83 1.07 M85.33 10.97 C89.32 7.53, 91.87 4.24, 95.39 0.17 M92.86 10.57 C95.91 7.26, 97.73 2.2, 101.8 -0.02 M91.98 10.15 C94.24 6.85, 96.51 3.84, 100.36 -0.52 M97.13 9.84 C98.33 8.66, 103.93 2.74, 104.74 1.76 M97.14 10.49 C98.88 7.5, 101.74 4.68, 106.15 0.63 M102.1 11.05 C103.28 9.79, 103.59 8.28, 105.12 6.34 M102.3 10.79 C103.02 9.24, 104.22 8.09, 105.15 6.81 M-0.33 9.52 C-0.33 9.52, -0.33 9.52, -0.33 9.52 M-0.33 9.52 C-0.33 9.52, -0.33 9.52, -0.33 9.52 M6.81 10.12 C5.08 8.04, 3.58 7.89, -0.49 4.41 M5.76 9.43 C4.56 8.61, 2.86 6.63, 0.4 4.65 M12.27 9.96 C8.23 5.81, 5.08 2.84, 1 -0.48 M13.18 9.5 C7.4 5.41, 2.93 2.06, 0.84 0.16 M18.56 8.44 C15.58 8.58, 13.58 5.13, 6.68 -0.49 M18.03 9.81 C13.35 6.89, 10.69 2.96, 6.24 -0.21 M25.15 8.73 C19.39 5.75, 17.02 3.2, 11.32 0.27 M24.05 9.43 C22.09 6.85, 19.35 4.6, 12.49 0.18 M29.15 10.73 C25.21 6.86, 22.46 2.97, 19.48 0.08 M30.5 10.1 C26.66 6.63, 23.02 2.74, 18.12 0.25 M35.5 11.15 C34.25 6.97, 30.45 5.93, 24.51 0.53 M36.94 10.35 C31.57 6.11, 27.52 1.83, 24.6 -0.24 M42.92 9.4 C40.08 5.28, 34.85 3.91, 30.52 0.07 M43.25 10.23 C40.66 7.89, 36.55 4.86, 30.86 -0.43 M48.99 8.46 C45.68 7.63, 43.55 4.63, 38.13 0.51 M47.96 9.09 C45.01 6.8, 41.74 3.85, 37.75 -0.8 M56.42 10.97 C49.92 5.83, 48.08 3.2, 43.92 0.8 M55.67 10.48 C49.75 5.91, 46.19 2.2, 43.34 0.14 M61.27 10.36 C56.03 6.76, 54.93 3.53, 48.88 -0.15 M60.1 10.1 C56.74 5.91, 53.14 4.11, 48.68 0.4 M66.17 9.63 C63.21 4.85, 59.91 3.11, 53.88 0.15 M67.75 9.02 C63.15 6.03, 59.25 2.23, 54.93 -0.54 M74.75 11.57 C69.11 6.8, 66.33 4.92, 62.8 -2.02 M73.05 10.64 C69.49 5.7, 64.37 2.46, 60.66 0.23 M78.73 9.65 C77.77 6.57, 74.52 5.35, 67.7 -0.5 M78.54 10.28 C75.42 6.29, 71.19 4.07, 68.02 0.2 M85.74 10.24 C81.39 4.57, 76.25 1.48, 73.95 -1.76 M84.91 10.17 C82.28 7, 77.67 3.2, 73.18 -0.15 M92.1 10.11 C87.87 6.05, 81.51 2.14, 80.32 0.94 M91.55 9.78 C88.25 7.4, 85.25 3.8, 80.17 -0.26 M98.92 9.63 C95.62 7.97, 91.2 3.38, 86.97 -1.18 M98.16 10.11 C93.59 7.45, 91.13 4.55, 85.38 -0.41 M103.33 8.98 C99.1 5.39, 94.15 3.47, 91.84 -0.96 M103.23 10.51 C100.42 6.31, 95.36 2.81, 91.87 0.26 M106.21 7 C104.88 4.88, 102.05 2.62, 98.67 -0.2 M106.72 7.46 C105.07 5.06, 102.01 3.57, 98.53 -0.5 M107.28 1.96 C106.29 1.52, 105.62 0.42, 103.94 -0.55 M106.71 1.88 C106.45 1.62, 105.65 0.85, 103.74 -0.46" stroke="#000000" stroke-width="0.5" fill="none"></path><path d="M0.35 1.45 C26.51 0.11, 53.96 0.95, 104.56 -0.05 M0.57 -0.95 C37.83 0.07, 77.61 0.18, 104.72 0.11 M105.6 0.21 C103.98 2.47, 105.11 6.33, 105.55 9.07 M105.01 -0.3 C104.49 2.42, 105.05 4.44, 105.11 10.14 M103.48 9.92 C67.48 8.92, 29.72 10.27, 1.98 8.88 M104.66 9.57 C79.44 9.65, 52.61 9.63, -0.2 9.36 M0.19 10.48 C0.53 7.23, 0.19 5.28, 0.62 -0.05 M0.35 10.14 C-0.25 5.96, -0.42 3.11, -0.06 -0.41" stroke="#000000" stroke-width="1" fill="none"></path></g><g stroke-linecap="round" transform="translate(196.21704960497647 153.6398340352821) rotate(0 16.4431974724873 16.443197472487327)"><path d="M1.16 -1.19 L33.67 -1.3 L33.72 32.26 L1.07 34.61" stroke="none" stroke-width="0" fill="#868e96"></path><path d="M0.83 0.76 C12.16 0.62, 26.21 -1.61, 33.88 -0.27 M0.57 0.86 C12.36 -1.03, 26.4 -0.92, 33.45 -0.76 M31.91 0.68 C31.83 12.21, 32.62 21.02, 32.3 31.21 M33.16 -0.63 C32.49 8.71, 32.73 18.8, 32.5 33.58 M30.98 31.02 C25.51 32.08, 18.88 34.17, 1.35 34.58 M32.79 32.38 C20.01 33.86, 8.35 33.35, 0.37 33.68 M-1.15 32.71 C0.96 20.11, -0.22 6.69, -1.42 0.05 M0.31 32.64 C-0.62 20.35, 0.84 8.17, -0.88 -0.08" stroke="#000000" stroke-width="1" fill="none"></path></g><g stroke-linecap="round" transform="translate(250.00012050993854 151.17122281185266) rotate(0 16.4431974724873 16.443197472487327)"><path d="M0.12 -0.65 L32.12 1.47 L33.14 33.62 L-0.87 34.74" stroke="none" stroke-width="0" fill="#868e96"></path><path d="M-0.19 -1.15 C5.28 0.95, 14.64 1.84, 34.12 0.17 M-0.34 0.89 C11.66 0.35, 22.36 -0.06, 32.85 -0.26 M34.3 1.09 C32.61 9.83, 34.51 18.24, 33.57 34.21 M32.1 0.77 C32.33 8.76, 33.12 16.74, 33.54 32.21 M31.78 31.86 C21.91 31.51, 9.15 33.79, -0.82 34.34 M33.56 33.65 C20.52 32.94, 8.11 33, 0.03 33.86 M-1.11 31.39 C-1.01 26.29, -0.88 20.34, 0.98 -0.5 M-0.42 32.52 C-0.94 19.01, -0.16 6.47, -0.56 -0.14" stroke="#000000" stroke-width="1" fill="none"></path></g><g stroke-linecap="round" transform="translate(306.16065315564646 151.86456272105897) rotate(0 16.4431974724873 16.443197472487327)"><path d="M-1.81 -0.84 L31.9 1.49 L33.21 31.08 L-0.59 32.88" stroke="none" stroke-width="0" fill="#868e96"></path><path d="M0.53 0.44 C7.66 -0.67, 16.98 -0.8, 31.97 -1.28 M-0.03 0.73 C9.72 0.58, 17.94 0.48, 32.36 -0.44 M32.05 1.22 C33.38 8.98, 33.93 14.87, 33.55 31.76 M32.88 -0.66 C31.79 9.73, 32.3 19.22, 33.52 33.04 M32.04 33.64 C24.43 34.01, 19.59 35.08, -1.64 34.67 M32.53 33.17 C25.92 33.54, 20.03 32.39, 0.95 33.82 M-1.26 31.08 C0.43 23.66, -0.98 16.01, 0.12 -0.65 M0.37 32.45 C0.69 23.68, -1.03 15.86, -0.07 -0.89" stroke="#000000" stroke-width="1" fill="none"></path></g><g stroke-linecap="round" transform="translate(206.5944039620712 160.48736450669662) rotate(0 6.55712244381651 8.811133283878462)"><path d="M4.43 -0.04 C5.83 -0.63, 8.56 0.13, 9.96 0.89 C11.36 1.65, 12.17 2.94, 12.82 4.51 C13.47 6.09, 14.38 8.41, 13.85 10.34 C13.31 12.28, 10.93 15.06, 9.62 16.12 C8.32 17.18, 7.45 16.94, 6.02 16.71 C4.6 16.48, 2.17 15.77, 1.09 14.73 C0.01 13.69, -0.49 12.43, -0.46 10.47 C-0.43 8.52, 0.36 4.7, 1.28 2.98 C2.21 1.25, 4.31 0.73, 5.07 0.15 C5.83 -0.44, 5.64 -0.79, 5.85 -0.51 M8.27 -0.09 C9.51 0.9, 11.8 4.47, 12.48 6.46 C13.15 8.45, 12.78 10.34, 12.31 11.86 C11.83 13.38, 10.55 14.47, 9.63 15.59 C8.71 16.7, 8.01 18.76, 6.8 18.54 C5.58 18.32, 3.24 15.78, 2.36 14.25 C1.48 12.71, 1.48 11.02, 1.5 9.33 C1.52 7.64, 1.97 5.74, 2.48 4.09 C2.99 2.45, 3.2 -0.01, 4.57 -0.55 C5.93 -1.09, 9.88 0.68, 10.69 0.84 C11.49 1, 9.8 0.09, 9.41 0.41" stroke="none" stroke-width="0" fill="#ced4da"></path><path d="M8.45 0.18 C9.58 0.5, 10.91 2.18, 11.79 3.84 C12.67 5.51, 13.84 8.13, 13.74 10.17 C13.65 12.21, 12.39 14.75, 11.24 16.1 C10.08 17.45, 8.43 18.33, 6.81 18.27 C5.19 18.21, 2.75 17.12, 1.53 15.73 C0.31 14.33, -0.31 11.91, -0.49 9.9 C-0.68 7.9, -0.41 5.36, 0.42 3.68 C1.25 1.99, 2.92 -0.01, 4.48 -0.21 C6.04 -0.41, 8.62 1.64, 9.8 2.48 C10.98 3.32, 11.35 4.78, 11.54 4.84 M2.87 1.58 C3.62 0.56, 5.13 0.31, 6.62 0.86 C8.1 1.41, 10.92 3.27, 11.79 4.87 C12.67 6.48, 12.19 8.99, 11.88 10.49 C11.58 12, 10.88 12.82, 9.95 13.9 C9.03 14.99, 7.39 16.68, 6.32 17 C5.24 17.32, 4.26 16.61, 3.49 15.82 C2.71 15.02, 2.23 13.72, 1.66 12.23 C1.1 10.75, -0.43 8.88, 0.11 6.89 C0.65 4.9, 4.44 1.34, 4.91 0.3 C5.38 -0.75, 3.27 0.6, 2.93 0.63" stroke="#495057" stroke-width="1" fill="none"></path></g><g stroke-linecap="round" transform="translate(259.87102381808023 160.63827057978074) rotate(0 6.5571224438165245 8.811133283878462)"><path d="M4.76 0.39 C6.18 -0.09, 8.5 0.52, 9.62 1.06 C10.74 1.61, 10.76 1.95, 11.48 3.67 C12.19 5.4, 14.17 9.55, 13.91 11.43 C13.64 13.32, 10.97 14.02, 9.89 15.01 C8.81 16, 8.66 17.46, 7.41 17.38 C6.15 17.3, 3.41 15.86, 2.35 14.55 C1.29 13.23, 1.31 11.37, 1.05 9.51 C0.79 7.64, 0.12 5.01, 0.78 3.36 C1.44 1.7, 4.2 0, 5.03 -0.43 C5.87 -0.87, 5.86 0.41, 5.78 0.73 M5.23 1.1 C6.34 -0.02, 7 -0.75, 8.03 -0.44 C9.06 -0.13, 10.47 1.31, 11.42 2.97 C12.38 4.62, 14.05 7.2, 13.78 9.49 C13.5 11.78, 10.74 15.61, 9.75 16.71 C8.76 17.82, 9.09 16.52, 7.82 16.13 C6.55 15.74, 3.28 15.59, 2.12 14.4 C0.97 13.2, 1.1 10.57, 0.89 8.98 C0.68 7.39, 0.32 6.26, 0.87 4.85 C1.41 3.44, 3.58 1.15, 4.14 0.51 C4.7 -0.12, 4.31 1.06, 4.24 1.05" stroke="none" stroke-width="0" fill="#ced4da"></path><path d="M7.48 0.13 C8.93 0.06, 10.2 0.66, 11.28 1.79 C12.37 2.92, 13.96 4.96, 13.97 6.93 C13.98 8.9, 12.26 12.05, 11.35 13.61 C10.45 15.17, 9.9 15.79, 8.55 16.28 C7.2 16.78, 4.61 17, 3.23 16.58 C1.85 16.16, 0.78 15.48, 0.29 13.74 C-0.2 12, -0.02 8.1, 0.3 6.13 C0.61 4.15, 1.04 3.03, 2.2 1.9 C3.36 0.77, 6.15 -0.53, 7.26 -0.65 C8.37 -0.77, 8.72 0.93, 8.88 1.17 M5.17 1.37 C6.57 1.17, 7.99 1.04, 9.14 1.65 C10.3 2.26, 11.33 3.21, 12.09 5.03 C12.86 6.85, 13.99 10.81, 13.73 12.58 C13.47 14.35, 11.63 14.85, 10.52 15.67 C9.42 16.49, 8.36 17.56, 7.08 17.47 C5.8 17.38, 4.11 16.68, 2.85 15.14 C1.6 13.6, -0.4 10.22, -0.43 8.24 C-0.47 6.26, 1.7 4.7, 2.65 3.25 C3.6 1.8, 4.95 -0.18, 5.26 -0.48 C5.57 -0.78, 4.65 1.2, 4.5 1.43" stroke="#495057" stroke-width="1" fill="none"></path></g><g stroke-linecap="round" transform="translate(316.83602504873596 160.2284504270424) rotate(0 6.5571224438165245 8.811133283878462)"><path d="M8.67 1.97 C9.82 2.66, 11.39 3.66, 11.93 5.29 C12.46 6.93, 12.33 9.83, 11.89 11.78 C11.45 13.73, 10.27 16.07, 9.29 16.97 C8.31 17.88, 7.22 17.69, 6.01 17.2 C4.8 16.71, 3.03 15.23, 2.03 14.05 C1.02 12.87, 0 11.82, 0 10.12 C-0.01 8.41, 1.22 5.57, 1.99 3.81 C2.77 2.05, 3.42 0.15, 4.65 -0.43 C5.88 -1.01, 8.38 0.05, 9.39 0.31 C10.39 0.57, 10.75 0.71, 10.66 1.12 M7.97 1.52 C9.25 2.17, 10.12 3.34, 11.02 4.88 C11.91 6.41, 13.44 8.9, 13.34 10.72 C13.24 12.54, 11.57 14.79, 10.43 15.81 C9.29 16.82, 8.05 17.15, 6.5 16.8 C4.95 16.46, 2.3 14.92, 1.12 13.74 C-0.06 12.56, -0.62 11.38, -0.57 9.71 C-0.53 8.03, 0.7 5.18, 1.37 3.69 C2.03 2.19, 1.99 1.17, 3.43 0.72 C4.88 0.26, 9.08 1.03, 10.04 0.95 C10.99 0.86, 9.33 0.36, 9.15 0.21" stroke="none" stroke-width="0" fill="#ced4da"></path><path d="M4.43 1.05 C5.51 0.2, 6 -0.44, 7.24 -0.03 C8.48 0.38, 11 1.78, 11.86 3.5 C12.72 5.22, 12.35 8.24, 12.38 10.3 C12.41 12.35, 12.92 14.7, 12.05 15.85 C11.17 17, 8.8 17.24, 7.14 17.17 C5.48 17.11, 3.25 16.3, 2.09 15.44 C0.94 14.59, 0.51 13.67, 0.2 12.03 C-0.12 10.39, -0.36 7.56, 0.2 5.61 C0.77 3.66, 2.8 1.06, 3.58 0.35 C4.37 -0.35, 4.76 1.26, 4.92 1.38 M10.18 0.63 C11.27 1.39, 11.44 4.97, 11.86 6.8 C12.28 8.63, 13.12 10.16, 12.7 11.61 C12.28 13.07, 10.33 14.72, 9.33 15.54 C8.32 16.36, 7.97 16.89, 6.68 16.52 C5.38 16.15, 2.86 14.71, 1.56 13.3 C0.25 11.88, -1.02 9.92, -1.15 8.05 C-1.28 6.18, -0.36 3.44, 0.79 2.1 C1.94 0.77, 4.09 0.09, 5.76 0.04 C7.42 -0.02, 10.32 1.8, 10.76 1.79 C11.21 1.77, 8.41 -0.32, 8.4 -0.07" stroke="#495057" stroke-width="1" fill="none"></path></g><g stroke-linecap="round" transform="translate(208.65210764383704 121.11865097142436) rotate(0 4.907150295458408 7.583777729344888)"><path d="M0.06 -1.98 L8.89 -1.51 L8.41 16.48 L-1.31 17.01" stroke="none" stroke-width="0" fill="#ced4da"></path><path d="M0.63 0.64 C3.68 -0.39, 7.62 0, 10.6 0.32 M-0.02 0 C2.44 -0.34, 5.67 -0.41, 9.79 -0.44 M8.57 0.51 C9.57 4.48, 10.44 5.54, 8.51 16.55 M10.54 -0.18 C9.77 5.29, 10.43 11.45, 9.7 14.47 M10.13 14.83 C6.86 14.54, 3.3 16.15, 0.62 15.53 M9.36 15.41 C7.09 14.77, 5.27 15.52, -0.49 15.09 M0 15.58 C-0.22 11.79, -0.17 8.82, -0.81 -0.94 M0.14 15.03 C-0.57 12.28, 0.5 9.14, 0.02 -0.34" stroke="#495057" stroke-width="1" fill="none"></path></g><g stroke-linecap="round" transform="translate(261.73855174925086 122.90306926068206) rotate(0 4.907150295458393 7.583777729344888)"><path d="M1.12 0.1 L8.97 -0.14 L9.42 16.1 L1.72 15.34" stroke="none" stroke-width="0" fill="#ced4da"></path><path d="M-0.52 -0.91 C3.8 -0.47, 5.92 0.84, 10.62 -0.98 M-0.46 0 C2.92 -0.1, 5.56 -0.08, 9.92 -0.26 M9.7 0.28 C9.4 2.34, 10.02 8.11, 10.03 15.2 M9.46 -0.57 C9.29 4.36, 9.32 8.43, 10.13 15.58 M9.17 15.01 C7.2 15.96, 6.08 14.47, -0.86 15.59 M10.26 15.3 C6.43 15.23, 3.28 15.02, -0.03 15.02 M0.57 15.14 C1.2 12.57, -0.46 9.46, -1.04 -0.79 M0.42 15.75 C-0.69 12.22, 0.49 8.6, -0.61 -0.1" stroke="#495057" stroke-width="1" fill="none"></path></g><g stroke-linecap="round" transform="translate(315.480862109148 124.01833069146801) rotate(0 4.907150295458393 7.583777729344888)"><path d="M0.67 -1.18 L10.19 0.8 L8.33 13.73 L-0.85 15.8" stroke="none" stroke-width="0" fill="#ced4da"></path><path d="M-0.06 0.22 C2.68 -0.6, 5.46 -0.4, 9.74 0.18 M0.28 0.07 C2.78 -0.25, 5.55 -0.51, 9.59 -0.37 M11.22 0.63 C10.74 2.55, 10.52 8.03, 8.82 14.93 M9.22 -0.67 C10.25 4.49, 10.14 7.55, 10.51 15.38 M9.69 15.12 C6.49 14.57, 3.82 14.73, 0.37 15.15 M10.25 14.83 C5.83 14.76, 2.17 15.15, 0.27 15.54 M0.45 13.94 C-0.29 12.97, -0.01 8.43, -0.11 -0.3 M-0.08 15.33 C-0.89 10.56, 0.39 4.77, -0.55 -0.02" stroke="#495057" stroke-width="1" fill="none"></path></g><g transform="translate(235.14142103269646 47.125067399847694) rotate(0 31.000000000000014 12.5)"><text x="0" y="18" font-family="Virgil, Segoe UI Emoji" font-size="20px" fill="#ffff" text-anchor="start" style="white-space: pre;" direction="ltr">MODO</text></g><g transform="translate(211.73493685537136 185.49617497986583) rotate(0 3 10.5)"><text x="0" y="15" font-family="Virgil, Segoe UI Emoji" font-size="16px" fill="#ffff" text-anchor="start" style="white-space: pre;" direction="ltr">1</text></g><g transform="translate(264.37368027216223 186.04753979176758) rotate(0 6.5 10.5)"><text x="0" y="15" font-family="Virgil, Segoe UI Emoji" font-size="16px" fill="#ffff" text-anchor="start" style="white-space: pre;" direction="ltr">2</text></g><g transform="translate(319.48342455101465 184.4269938670068) rotate(0 6.5 10.5)"><text x="0" y="15" font-family="Virgil, Segoe UI Emoji" font-size="16px" fill="#ffff" text-anchor="start" style="white-space: pre;" direction="ltr">3</text></g><g transform="translate(212.02124059163262 217.59601565696244) rotate(0 41.410616178366766 67.84970189224714)" stroke="none"><path fill="#ffff" d="M 1.55,-0.08 Q 1.55,-0.08 1.89,6.32 2.22,12.73 2.89,17.97 3.57,23.20 5.13,32.20 6.69,41.20 8.44,48.66 10.19,56.12 12.56,62.53 14.92,68.93 18.81,75.43 22.71,81.92 28.18,88.87 33.65,95.82 39.43,101.68 45.20,107.54 52.37,112.92 59.53,118.30 64.97,122.07 70.40,125.83 73.63,127.98 76.85,130.13 78.62,131.44 80.39,132.74 82.00,133.54 83.61,134.35 83.80,134.51 84.00,134.67 84.13,134.89 84.26,135.10 84.32,135.35 84.37,135.60 84.35,135.85 84.32,136.10 84.22,136.33 84.11,136.56 83.94,136.74 83.77,136.93 83.55,137.05 83.33,137.17 83.08,137.21 82.83,137.25 82.58,137.22 82.33,137.18 82.11,137.06 81.88,136.94 81.71,136.76 81.53,136.58 81.42,136.35 81.32,136.12 81.29,135.87 81.26,135.62 81.31,135.38 81.36,135.13 81.49,134.91 81.62,134.69 81.81,134.53 82.00,134.36 82.23,134.27 82.47,134.17 82.72,134.16 82.97,134.14 83.22,134.21 83.46,134.27 83.67,134.41 83.88,134.55 84.03,134.75 84.19,134.95 84.27,135.19 84.35,135.43 84.36,135.68 84.36,135.93 84.28,136.17 84.20,136.41 84.05,136.62 83.90,136.82 83.69,136.96 83.48,137.11 83.24,137.17 83.00,137.24 82.75,137.23 82.49,137.22 82.26,137.13 82.02,137.04 82.02,137.04 82.02,137.04 80.42,135.95 78.82,134.86 77.11,133.60 75.39,132.33 72.14,130.17 68.90,128.01 63.42,124.22 57.94,120.43 50.62,114.92 43.31,109.41 37.43,103.45 31.55,97.48 25.97,90.39 20.39,83.31 16.38,76.60 12.37,69.89 9.93,63.32 7.50,56.76 5.71,49.22 3.91,41.69 2.31,32.64 0.71,23.58 -0.02,18.24 -0.75,12.90 -1.15,6.49 -1.55,0.08 -1.54,-0.09 -1.53,-0.28 -1.47,-0.46 -1.42,-0.64 -1.32,-0.80 -1.22,-0.96 -1.09,-1.10 -0.95,-1.23 -0.79,-1.32 -0.63,-1.42 -0.45,-1.48 -0.27,-1.53 -0.08,-1.54 0.09,-1.55 0.28,-1.52 0.46,-1.48 0.64,-1.41 0.81,-1.33 0.96,-1.21 1.10,-1.10 1.22,-0.95 1.33,-0.80 1.41,-0.63 1.49,-0.45 1.52,-0.27 1.55,-0.08 1.55,-0.08 L 1.55,-0.08 Z"></path></g><g transform="translate(210.7470677861444 234.79734853105333) rotate(0 0.637086402744103 0.9556296041160977)" stroke="none"><path d="M0.98 0.72 L-1.63 -0.08 L-0.67 0.59 L0.17 0.3 L1.08 0.01" stroke="none" stroke-width="0" fill="#868e96" fill-rule="evenodd"></path><path fill="#ffff" d="M 2.12,-0.66 Q 2.12,-0.66 2.15,-0.13 2.18,0.40 1.96,0.88 1.74,1.36 1.32,1.69 0.91,2.02 0.38,2.12 -0.13,2.21 -0.64,2.05 -1.14,1.90 -1.52,1.52 -1.90,1.14 -2.05,0.64 -2.21,0.13 -2.12,-0.38 -2.02,-0.91 -1.69,-1.32 -1.36,-1.74 -0.88,-1.96 -0.39,-2.18 0.13,-2.15 0.66,-2.11 1.11,-1.84 1.57,-1.56 1.84,-1.11 L 2.12,-0.66 Z"></path></g><g transform="translate(209.4728949806562 215.68475644873024) rotate(0 82.82123235673352 58.61194905245759)" stroke="none"><path fill="#ffff" d="M 1.51,-0.37 Q 1.51,-0.37 2.03,1.82 2.54,4.03 3.83,7.45 5.11,10.87 8.73,17.59 12.36,24.31 16.82,31.38 21.28,38.45 25.92,45.49 30.56,52.53 35.44,58.97 40.32,65.42 46.34,70.83 52.37,76.24 60.39,81.63 68.41,87.03 80.90,92.59 93.40,98.15 104.00,101.61 114.60,105.08 122.78,107.47 130.96,109.86 137.36,111.61 143.76,113.36 148.43,114.09 153.09,114.82 155.87,114.58 158.65,114.34 160.18,113.98 161.71,113.61 163.13,112.56 164.55,111.51 164.78,111.37 165.00,111.23 165.26,111.17 165.53,111.11 165.79,111.13 166.06,111.16 166.30,111.27 166.55,111.38 166.75,111.56 166.94,111.74 167.07,111.97 167.20,112.21 167.25,112.47 167.29,112.74 167.25,113.00 167.21,113.27 167.09,113.51 166.97,113.74 166.78,113.93 166.59,114.12 166.34,114.23 166.10,114.35 165.84,114.38 165.57,114.41 165.31,114.36 165.04,114.31 164.81,114.17 164.58,114.04 164.41,113.83 164.23,113.63 164.13,113.38 164.02,113.14 164.01,112.87 163.99,112.60 164.06,112.34 164.13,112.08 164.27,111.86 164.42,111.64 164.63,111.47 164.84,111.31 165.10,111.22 165.35,111.13 165.62,111.12 165.88,111.12 166.14,111.20 166.39,111.29 166.61,111.45 166.83,111.60 166.98,111.82 167.13,112.04 167.21,112.30 167.28,112.56 167.27,112.83 167.26,113.09 167.16,113.34 167.07,113.59 166.90,113.80 166.73,114.01 166.73,114.01 166.73,114.01 164.49,115.28 162.25,116.56 160.56,116.76 158.86,116.96 155.78,117.19 152.70,117.42 147.88,116.66 143.07,115.90 136.64,114.15 130.22,112.39 122.00,109.99 113.78,107.59 103.05,104.08 92.32,100.58 79.62,94.91 66.92,89.24 58.75,83.74 50.58,78.23 44.38,72.64 38.17,67.05 33.23,60.55 28.29,54.04 23.61,46.98 18.94,39.93 14.41,32.79 9.88,25.66 6.14,18.78 2.41,11.90 1.03,8.33 -0.35,4.75 -0.93,2.56 -1.51,0.37 -1.53,0.19 -1.56,0.00 -1.54,-0.18 -1.51,-0.36 -1.45,-0.54 -1.38,-0.72 -1.27,-0.87 -1.17,-1.03 -1.03,-1.15 -0.89,-1.28 -0.72,-1.37 -0.55,-1.45 -0.37,-1.50 -0.19,-1.55 -0.00,-1.55 0.18,-1.55 0.36,-1.50 0.54,-1.46 0.71,-1.37 0.88,-1.28 1.02,-1.16 1.16,-1.03 1.27,-0.88 1.38,-0.73 1.44,-0.55 1.51,-0.37 1.51,-0.37 L 1.51,-0.37 Z"></path></g><g transform="translate(209.4728949806562 216.95892925421845) rotate(0 76.76891153066454 68.80533149636312)" stroke="none"><path fill="#000000" d="M 1.40,-0.70 Q 1.40,-0.70 2.30,1.13 3.20,2.97 4.89,8.45 6.58,13.93 8.56,21.93 10.54,29.93 13.00,36.92 15.46,43.90 18.69,51.25 21.92,58.59 26.19,65.88 30.46,73.17 36.27,80.43 42.07,87.69 48.70,93.85 55.34,100.02 62.88,105.36 70.42,110.70 78.74,115.72 87.06,120.73 98.02,124.84 108.97,128.95 117.99,131.06 127.00,133.17 133.48,133.32 139.96,133.48 143.40,133.01 146.84,132.54 148.25,132.08 149.66,131.61 150.89,130.72 152.12,129.83 152.27,129.63 152.43,129.42 152.65,129.28 152.87,129.13 153.12,129.06 153.37,129.00 153.63,129.01 153.89,129.03 154.13,129.13 154.37,129.22 154.57,129.39 154.77,129.56 154.90,129.79 155.03,130.01 155.09,130.27 155.14,130.52 155.11,130.78 155.08,131.04 154.97,131.27 154.86,131.51 154.68,131.70 154.50,131.89 154.27,132.01 154.04,132.13 153.78,132.17 153.52,132.21 153.27,132.16 153.01,132.12 152.78,132.00 152.55,131.87 152.37,131.68 152.19,131.49 152.09,131.25 151.98,131.02 151.95,130.76 151.93,130.50 151.98,130.25 152.04,129.99 152.18,129.77 152.31,129.55 152.51,129.38 152.71,129.21 152.95,129.12 153.20,129.02 153.46,129.01 153.72,129.00 153.97,129.07 154.22,129.14 154.43,129.29 154.65,129.44 154.80,129.65 154.96,129.85 155.04,130.10 155.12,130.35 155.12,130.61 155.12,130.87 155.03,131.11 154.95,131.36 154.95,131.36 154.95,131.36 152.68,132.96 150.41,134.55 148.80,134.85 147.20,135.15 143.55,135.64 139.90,136.12 133.15,135.93 126.41,135.74 117.23,133.58 108.04,131.42 96.87,127.22 85.70,123.01 77.29,117.94 68.88,112.88 61.20,107.43 53.52,101.98 46.74,95.68 39.97,89.38 34.05,81.96 28.12,74.55 23.76,67.13 19.40,59.71 16.11,52.27 12.83,44.84 10.30,37.74 7.77,30.63 5.76,22.72 3.76,14.81 2.10,9.58 0.45,4.34 -0.47,2.52 -1.40,0.70 -1.46,0.52 -1.53,0.34 -1.54,0.15 -1.56,-0.03 -1.54,-0.21 -1.51,-0.40 -1.44,-0.58 -1.37,-0.75 -1.26,-0.90 -1.15,-1.06 -1.00,-1.18 -0.86,-1.30 -0.69,-1.39 -0.52,-1.47 -0.34,-1.51 -0.15,-1.56 0.03,-1.55 0.21,-1.55 0.40,-1.50 0.58,-1.45 0.75,-1.36 0.91,-1.27 1.05,-1.14 1.19,-1.01 1.29,-0.85 1.40,-0.70 1.40,-0.70 L 1.40,-0.70 Z"></path></g><g transform="translate(269.9961032413461 213.77349724049782) rotate(0 74.85765232243224 32.80994974132136)" stroke="none"><path fill="#000000" d="M 1.31,-0.83 Q 1.31,-0.83 2.57,1.19 3.82,3.22 4.94,5.64 6.06,8.05 7.27,11.68 8.47,15.31 12.20,21.26 15.92,27.21 21.11,32.62 26.30,38.04 32.34,43.28 38.38,48.51 43.98,51.78 49.58,55.06 55.74,57.35 61.90,59.64 71.03,60.97 80.15,62.29 86.23,62.68 92.30,63.07 99.72,61.97 107.14,60.86 112.89,59.84 118.65,58.82 123.47,57.84 128.28,56.86 132.55,56.07 136.81,55.29 139.95,54.95 143.09,54.61 144.86,54.56 146.63,54.51 147.83,54.24 149.04,53.96 149.29,53.89 149.54,53.82 149.80,53.84 150.06,53.85 150.30,53.95 150.54,54.04 150.74,54.21 150.94,54.38 151.07,54.61 151.21,54.83 151.26,55.08 151.32,55.34 151.29,55.60 151.26,55.85 151.15,56.09 151.04,56.33 150.86,56.51 150.68,56.70 150.45,56.82 150.22,56.95 149.96,56.99 149.71,57.03 149.45,56.99 149.19,56.94 148.96,56.82 148.74,56.70 148.56,56.51 148.38,56.32 148.27,56.09 148.16,55.85 148.13,55.59 148.10,55.33 148.16,55.08 148.22,54.82 148.35,54.60 148.49,54.38 148.68,54.21 148.88,54.04 149.13,53.95 149.37,53.85 149.63,53.84 149.89,53.82 150.14,53.89 150.39,53.96 150.60,54.11 150.82,54.26 150.98,54.46 151.13,54.67 151.22,54.92 151.30,55.16 151.30,55.42 151.30,55.68 151.21,55.93 151.13,56.18 150.97,56.38 150.81,56.59 150.60,56.74 150.38,56.88 150.38,56.88 150.38,56.88 148.47,57.18 146.55,57.48 144.96,57.35 143.37,57.22 140.33,57.55 137.29,57.88 133.05,58.66 128.81,59.44 123.96,60.43 119.11,61.42 113.31,62.45 107.52,63.47 99.83,64.59 92.15,65.72 85.96,65.32 79.77,64.92 70.38,63.53 60.98,62.14 54.61,59.76 48.23,57.37 42.42,53.97 36.62,50.56 30.48,45.24 24.33,39.93 18.96,34.30 13.59,28.68 9.70,22.46 5.81,16.23 4.63,12.76 3.44,9.28 2.37,7.05 1.30,4.83 -0.00,2.83 -1.31,0.83 -1.39,0.66 -1.48,0.49 -1.51,0.31 -1.55,0.13 -1.54,-0.05 -1.54,-0.24 -1.49,-0.42 -1.43,-0.60 -1.34,-0.77 -1.25,-0.93 -1.12,-1.07 -0.99,-1.20 -0.83,-1.30 -0.67,-1.40 -0.49,-1.46 -0.31,-1.52 -0.12,-1.54 0.05,-1.56 0.24,-1.53 0.43,-1.50 0.60,-1.42 0.77,-1.35 0.92,-1.24 1.07,-1.12 1.19,-0.98 1.31,-0.83 1.31,-0.83 L 1.31,-0.83 Z"></path></g><g transform="translate(340.7126939459416 212.4993244350096) rotate(0 42.04770258111088 7.326493631557241)" stroke="none"><path fill="#000000" d="M 0.89,-1.27 Q 0.89,-1.27 2.70,0.02 4.51,1.33 6.85,2.58 9.18,3.83 12.30,4.90 15.42,5.96 21.48,7.34 27.54,8.71 33.25,9.85 38.95,10.99 44.26,11.66 49.57,12.32 53.92,12.06 58.28,11.79 62.15,11.32 66.03,10.85 69.57,9.58 73.11,8.31 75.42,7.57 77.74,6.83 78.71,6.11 79.68,5.38 81.61,4.44 83.55,3.50 83.82,3.46 84.09,3.42 84.35,3.46 84.62,3.50 84.86,3.63 85.10,3.76 85.29,3.95 85.48,4.15 85.59,4.39 85.70,4.64 85.73,4.91 85.76,5.18 85.71,5.44 85.65,5.71 85.51,5.94 85.37,6.17 85.16,6.35 84.96,6.53 84.71,6.63 84.45,6.73 84.18,6.74 83.91,6.76 83.65,6.69 83.39,6.61 83.16,6.46 82.94,6.31 82.78,6.10 82.61,5.88 82.52,5.62 82.44,5.37 82.44,5.10 82.44,4.82 82.52,4.57 82.61,4.31 82.77,4.09 82.94,3.88 83.16,3.72 83.38,3.57 83.64,3.50 83.91,3.43 84.18,3.44 84.45,3.45 84.70,3.55 84.95,3.65 85.16,3.83 85.37,4.00 85.51,4.24 85.65,4.47 85.71,4.73 85.76,5.00 85.74,5.27 85.71,5.54 85.59,5.78 85.48,6.03 85.29,6.23 85.11,6.42 84.87,6.55 84.63,6.68 84.63,6.68 84.63,6.68 82.94,7.38 81.25,8.08 79.91,8.72 78.56,9.35 76.28,10.08 74.00,10.82 70.18,12.15 66.36,13.49 62.40,13.98 58.44,14.47 53.84,14.74 49.24,15.00 43.83,14.34 38.42,13.67 32.68,12.54 26.94,11.41 20.73,10.02 14.52,8.63 11.18,7.51 7.84,6.39 5.32,5.09 2.80,3.78 0.95,2.53 -0.89,1.27 -1.03,1.15 -1.17,1.02 -1.28,0.87 -1.38,0.71 -1.45,0.54 -1.51,0.36 -1.54,0.17 -1.56,-0.01 -1.53,-0.19 -1.51,-0.38 -1.44,-0.55 -1.37,-0.73 -1.27,-0.88 -1.16,-1.04 -1.02,-1.16 -0.87,-1.29 -0.71,-1.37 -0.54,-1.46 -0.36,-1.50 -0.17,-1.55 0.01,-1.55 0.19,-1.54 0.38,-1.50 0.56,-1.45 0.72,-1.36 0.89,-1.27 0.89,-1.27 L 0.89,-1.27 Z"></path></g><g transform="translate(438.18691356578955 211.37018846245064) rotate(0 40.49999999999997 10.5)"><text x="0" y="15" font-family="Virgil, Segoe UI Emoji" font-size="16px" fill="#000000" text-anchor="start" style="white-space: pre;" direction="ltr">-90 graus</text></g><g transform="translate(379.83055080488276 341.57233932463123) rotate(0 42 10.5)"><text x="0" y="15" font-family="Virgil, Segoe UI Emoji" font-size="16px" fill="#000000" text-anchor="start" style="white-space: pre;" direction="ltr">+90 graus</text></g><g transform="translate(431.1789631356044 266.7967055011877) rotate(0 47.50000000000003 10.5)"><text x="0" y="15" font-family="Virgil, Segoe UI Emoji" font-size="16px" fill="#000000" text-anchor="start" style="white-space: pre;" direction="ltr">+360 graus</text></g><g stroke-linecap="round" transform="translate(335.572899111674 206.16863965197444) rotate(0 4.468030583811043 4.840366465795228)"><path d="M2.05 0.26 C2.8 -0.11, 4.49 0.44, 5.61 0.77 C6.72 1.09, 8.22 1.55, 8.74 2.21 C9.26 2.87, 9.03 3.68, 8.71 4.73 C8.39 5.79, 7.57 7.66, 6.82 8.53 C6.06 9.41, 4.8 9.78, 4.16 9.99 C3.52 10.19, 3.74 10.33, 2.97 9.77 C2.2 9.21, -0.16 7.81, -0.47 6.63 C-0.77 5.44, 0.45 3.76, 1.14 2.64 C1.83 1.52, 3.38 0.27, 3.67 -0.09 C3.96 -0.45, 3.1 0.26, 2.87 0.47 M3.76 -0.48 C5.02 -0.48, 7.76 -0.17, 8.43 0.53 C9.1 1.24, 7.92 2.45, 7.77 3.75 C7.63 5.04, 8.08 7.44, 7.54 8.31 C7.01 9.17, 5.2 8.99, 4.55 8.94 C3.9 8.89, 4.17 8.45, 3.65 8.01 C3.13 7.57, 2.09 7.25, 1.4 6.29 C0.71 5.33, -0.34 3.32, -0.48 2.27 C-0.62 1.22, -0.18 0.59, 0.56 0 C1.31 -0.6, 3.1 -1.19, 4 -1.32 C4.9 -1.44, 5.65 -0.92, 5.94 -0.74" stroke="none" stroke-width="0" fill="#000000"></path><path d="M4.83 -0.94 C5.74 -0.92, 6.49 0.7, 7 1.38 C7.52 2.06, 7.7 2.05, 7.92 3.12 C8.15 4.18, 8.75 6.77, 8.34 7.78 C7.94 8.78, 6.47 8.86, 5.5 9.13 C4.53 9.41, 3.19 9.74, 2.53 9.4 C1.88 9.06, 1.9 7.91, 1.58 7.1 C1.26 6.28, 0.45 5.59, 0.61 4.52 C0.78 3.46, 1.76 1.43, 2.55 0.7 C3.34 -0.02, 4.96 0.18, 5.36 0.19 C5.76 0.19, 5.15 0.82, 4.95 0.73 M3.07 -0.1 C3.5 -0.54, 4.16 0.71, 5.03 1.31 C5.91 1.92, 7.46 2.6, 8.31 3.5 C9.16 4.41, 10.3 5.68, 10.13 6.74 C9.96 7.79, 8.24 9.25, 7.29 9.84 C6.34 10.42, 5.5 10.22, 4.42 10.23 C3.33 10.25, 1.38 10.62, 0.8 9.93 C0.22 9.25, 0.89 7.41, 0.91 6.13 C0.94 4.85, 0.66 3.16, 0.94 2.27 C1.23 1.38, 2.2 1.36, 2.61 0.8 C3.02 0.24, 3.32 -0.99, 3.41 -1.1" stroke="#000000" stroke-width="1" fill="none"></path></g><g stroke-linecap="round" transform="translate(264.8290815346657 209.89199847181703) rotate(0 4.468030583811043 4.840366465795228)"><path d="M4.17 -0.19 C5.03 -0.4, 5.87 -0.08, 6.56 0.55 C7.25 1.18, 7.95 2.49, 8.33 3.57 C8.71 4.65, 9.12 6.06, 8.87 7.04 C8.61 8.02, 7.69 8.99, 6.8 9.45 C5.92 9.91, 4.62 10.12, 3.57 9.8 C2.53 9.48, 1.15 8.48, 0.51 7.52 C-0.12 6.56, -0.36 5, -0.24 4.05 C-0.12 3.11, 0.44 2.68, 1.25 1.86 C2.06 1.04, 4.07 -0.57, 4.6 -0.84 C5.12 -1.11, 4.32 0.03, 4.38 0.25 M5.74 0.5 C6.6 0.86, 7.53 1.84, 7.91 2.95 C8.3 4.05, 8.41 5.96, 8.06 7.15 C7.7 8.33, 6.52 9.73, 5.8 10.07 C5.08 10.42, 4.66 9.47, 3.72 9.22 C2.78 8.97, 0.83 9.08, 0.16 8.56 C-0.51 8.05, -0.23 7.21, -0.29 6.13 C-0.35 5.05, -1 3.03, -0.2 2.07 C0.59 1.1, 3.49 0.45, 4.49 0.34 C5.48 0.22, 5.7 1.13, 5.79 1.38 C5.88 1.63, 4.94 2.14, 5.05 1.85" stroke="none" stroke-width="0" fill="#000000"></path><path d="M5.8 0.24 C6.47 0.46, 6.82 2.26, 7.43 2.99 C8.03 3.72, 9.51 3.68, 9.44 4.62 C9.37 5.57, 7.78 7.91, 7.02 8.66 C6.25 9.42, 5.61 9.15, 4.86 9.17 C4.1 9.18, 3.43 9.22, 2.49 8.77 C1.54 8.32, -0.55 7.46, -0.82 6.46 C-1.08 5.45, 0.19 3.73, 0.91 2.75 C1.63 1.77, 2.51 1, 3.5 0.56 C4.49 0.13, 6.3 -0.02, 6.85 0.14 C7.39 0.3, 7.07 1.46, 6.79 1.51 M4.98 -0.28 C5.87 0.03, 8.31 2.12, 9.11 2.97 C9.92 3.81, 10.14 3.73, 9.82 4.79 C9.49 5.84, 8.17 8.53, 7.17 9.3 C6.18 10.07, 4.88 9.65, 3.85 9.41 C2.82 9.17, 1.67 8.63, 0.97 7.85 C0.26 7.08, -0.12 5.6, -0.38 4.76 C-0.64 3.92, -1.2 3.61, -0.6 2.82 C-0.01 2.03, 2.35 0.45, 3.19 0.02 C4.03 -0.41, 4.08 0.04, 4.42 0.24 C4.75 0.45, 5.22 1, 5.2 1.25" stroke="#000000" stroke-width="1" fill="none"></path></g><g stroke-linecap="round" transform="translate(203.39366100726346 209.8919984718175) rotate(0 4.468030583811043 4.840366465795228)"><path d="M4.92 -0.34 C5.9 -0.17, 7.27 1.01, 8 1.89 C8.73 2.78, 9.24 3.97, 9.28 4.97 C9.33 5.98, 8.9 7.22, 8.29 7.91 C7.67 8.61, 6.63 9.01, 5.6 9.17 C4.56 9.32, 3.05 9.26, 2.07 8.85 C1.09 8.44, -0.01 7.59, -0.27 6.7 C-0.53 5.81, 0.25 4.6, 0.51 3.52 C0.77 2.44, 0.41 0.67, 1.29 0.21 C2.17 -0.26, 4.98 0.53, 5.79 0.7 C6.6 0.87, 6.23 1.23, 6.14 1.23 M4.25 -0.74 C5.34 -1.08, 7.18 -1.25, 8.16 -0.67 C9.14 -0.08, 10.15 1.78, 10.14 2.78 C10.14 3.79, 8.72 4.36, 8.14 5.36 C7.56 6.36, 7.33 8.24, 6.67 8.8 C6 9.35, 5.12 8.62, 4.13 8.69 C3.14 8.75, 1.39 9.93, 0.72 9.19 C0.05 8.46, -0.14 5.73, 0.11 4.29 C0.35 2.84, 1.33 1.15, 2.19 0.52 C3.06 -0.12, 5.2 0.45, 5.28 0.48 C5.36 0.5, 2.76 0.83, 2.67 0.68" stroke="none" stroke-width="0" fill="#000000"></path><path d="M5.39 0.54 C6.17 0.55, 6.01 0.08, 6.65 0.7 C7.28 1.31, 9 3.02, 9.19 4.25 C9.38 5.48, 8.31 7.35, 7.77 8.05 C7.23 8.76, 6.68 8.21, 5.94 8.49 C5.2 8.78, 4.22 9.87, 3.33 9.78 C2.45 9.69, 1.14 8.84, 0.62 7.95 C0.11 7.06, 0.13 5.57, 0.26 4.42 C0.39 3.28, 0.36 1.92, 1.4 1.07 C2.44 0.21, 5.66 -0.79, 6.5 -0.73 C7.33 -0.66, 6.45 1.2, 6.41 1.47 M4.03 1.09 C4.87 0.57, 4.77 -0.03, 5.67 0.1 C6.57 0.24, 8.93 1.06, 9.41 1.92 C9.89 2.78, 9.06 4.19, 8.53 5.25 C8 6.32, 7.14 7.74, 6.21 8.29 C5.28 8.84, 3.74 8.49, 2.95 8.57 C2.17 8.65, 2.07 9.52, 1.52 8.75 C0.97 7.97, -0.23 5.13, -0.34 3.93 C-0.46 2.73, 0.06 2.39, 0.82 1.54 C1.58 0.68, 3.63 -0.78, 4.22 -1.19 C4.8 -1.6, 4.4 -1.16, 4.33 -0.92" stroke="#000000" stroke-width="1" fill="none"></path></g><g transform="translate(10.000000000000004 141.36816045407318) rotate(0 72 31.5)"><text x="0" y="14" font-family="Virgil, Segoe UI Emoji" font-size="16px" fill="#000000" text-anchor="start" style="white-space: pre;" direction="ltr">controla o quanto</text><text x="0" y="35" font-family="Virgil, Segoe UI Emoji" font-size="16px" fill="#000000" text-anchor="start" style="white-space: pre;" direction="ltr">o motor vai girar</text><text x="0" y="56" font-family="Virgil, Segoe UI Emoji" font-size="16px" fill="#000000" text-anchor="start" style="white-space: pre;" direction="ltr">(ângulo e sentido)</text></g><g transform="translate(374.2958308380367 48.76538331059123) rotate(0 100.50000000000003 10.5)"><text x="0" y="15" font-family="Virgil, Segoe UI Emoji" font-size="16px" fill="#000000" text-anchor="start" style="white-space: pre;" direction="ltr">Exibe o valor selecionado</text></g></svg>