<svg version="1.1" xmlns="http://www.w3.org/2000/svg" viewBox="0 0 798.2325439433982 383.8900784733137" width="798.2325439433982" height="383.8900784733137">
  <!-- svg-source:excalidraw -->
  
  <defs>
    <style>
      @font-face {
        font-family: "Virgil";
        src: url("https://excalidraw.com/Virgil.woff2");
      }
      @font-face {
        font-family: "Cascadia";
        src: url("https://excalidraw.com/Cascadia.woff2");
      }
    </style>
  </defs>
  <rect x="0" y="0" width="798.2325439433982" height="383.8900784733137" fill="#ffffff"></rect><g stroke-linecap="round" transform="translate(10 103.03942603152632) rotate(0 111.59145960481493 99.3555539463922)"><path d="M0 0 C0 0, 0 0, 0 0 M0 0 C0 0, 0 0, 0 0 M-0.76 6.64 C1.37 4.07, 2.4 2.88, 4.8 0.03 M-0.23 6.11 C1.31 4.51, 2.84 2.54, 4.78 0.14 M-0.57 12.74 C4.87 8.19, 7.22 3.01, 10.39 0.01 M0.88 12.59 C3.75 8.4, 6.77 3.46, 10.61 -0.69 M1.45 20.12 C3.77 13.81, 5.89 10.12, 17.51 -1.37 M0.34 17.78 C4.28 12.15, 10.22 7.36, 15.53 1.3 M-0.86 23.21 C3.67 18.29, 10.8 14.37, 20.26 0.38 M0.79 23.64 C7.73 14.45, 15.4 5.41, 20.95 0.77 M-0.24 31.91 C6.25 23.4, 11.95 16.94, 24.75 0.81 M-0.18 30.75 C10.53 19.67, 20.72 8.37, 26.49 1 M-1.71 38.12 C10.53 24.07, 19.88 15.1, 32 0.23 M-0.17 36.72 C8.24 27.33, 17.8 17.51, 31.11 -0.84 M0.94 42.58 C7.85 32.76, 16.45 24.23, 38.26 2.24 M0.47 43.39 C12.53 28.84, 25.27 14.51, 36.08 0.96 M0.81 49.52 C10.84 35.42, 21.16 23.89, 41.86 -0.03 M0.83 49.9 C10.93 37.97, 20.7 25.95, 42.39 -0.51 M0.06 53.75 C16.04 36.77, 30.97 19.18, 47.64 -1.46 M0.25 54.25 C18.35 34.38, 36.77 11.85, 47.73 0.01 M-1.62 59.05 C18.66 43.91, 32.59 24.73, 53.74 1.4 M-0.78 60.12 C19.35 39.7, 38.86 17.08, 53.86 0.74 M-0.9 69.27 C13.25 48.6, 28.67 32.14, 60.06 0.74 M0.19 66.44 C20.94 42.5, 43.18 17.99, 57.62 -0.25 M0.92 74.98 C15.43 53.19, 35.68 36.2, 63.07 -0.2 M-0.22 72.39 C25.65 44.57, 49.51 16.65, 64.29 -0.34 M1.55 80.12 C16.65 59.7, 37.66 39.03, 68.24 -0.68 M-1 78.57 C14.78 61.81, 31.98 44.57, 68.61 0.58 M-0.09 85.05 C20.26 62.73, 42.66 36.71, 72.86 -0.14 M0.02 84.46 C28.46 52.22, 58.11 20.64, 74.16 -1.21 M0.52 93.01 C28.08 58.21, 56.35 24.6, 78.46 0.21 M-0.88 91.31 C26.63 61.14, 53.83 29.97, 80.32 -0.33 M-0.28 97.17 C23.02 69.02, 50.65 41.41, 85.67 -0.28 M-0.51 97.64 C21.26 72.7, 43.58 48.09, 85.69 0.43 M1.32 103.32 C34.97 65.55, 66.32 27.3, 90.58 0.75 M-0.59 104.35 C21.94 80.03, 41.93 56.34, 89.05 0.98 M0.27 108.46 C23.56 84.17, 43.02 57.65, 95.64 -1.05 M0.47 109.75 C18.21 87.94, 37.11 66.96, 94.79 -1.31 M0.84 115.89 C24.59 85.98, 52.01 57.13, 102.01 1.73 M0.4 115.15 C22.33 91.74, 43.21 67.24, 99.85 -0.75 M1.05 121.69 C38.43 76.91, 82.33 29.4, 104.46 -1.44 M-0.05 121.66 C31.85 86.75, 65.44 49.46, 107.13 -0.56 M-1.14 129.72 C43.09 80.32, 84.2 29.81, 111.72 -0.61 M-0.29 127.74 C43.68 79.32, 86.64 29.84, 110.47 -0.01 M-0.2 134.35 C46.86 81.28, 94.07 27, 116.72 1.76 M0.31 134.26 C38.31 90.75, 73.03 49.74, 115.4 1.1 M0.69 139.01 C27.5 108.78, 53.74 77.8, 120.24 1.4 M0.65 139.62 C24.62 112.91, 48.43 84.89, 121.38 -0.49 M-0.2 147.36 C38.89 100.57, 78.33 53.14, 126.55 -1.09 M0.66 145.23 C33.1 108.68, 68.52 68.4, 126 -0.41 M1.12 153.51 C47.37 100.8, 90.49 46.7, 133.55 -1.04 M0.24 152.38 C40.99 104.07, 85.06 55.1, 131.86 0.78 M1.06 157.93 C45.35 107.03, 90.2 57.41, 137.67 0.13 M0.1 159.66 C37.58 115.86, 74.97 74.11, 137.13 0.83 M-0.27 164.22 C47.66 107.78, 98.01 52.19, 143.62 -1.5 M0.01 164.58 C54.47 102.67, 107.35 41.65, 143.52 -0.04 M-0.15 171.85 C31.28 134.97, 61.97 101.44, 149.79 0.13 M0.53 171.51 C47.22 115.2, 94.92 60.5, 149.01 0.06 M-1.11 174.95 C43.43 125.55, 90.74 72.88, 155.23 1.41 M0.85 176.64 C53.18 116.8, 106.87 54.24, 153.46 -0.52 M-0.89 182.11 C50.3 124.56, 98.3 68.43, 159.12 -0.71 M0.6 183.43 C45.64 130.8, 89.09 80.37, 158.53 -0.18 M-0.24 190.9 C60.63 119.88, 122.08 48.47, 163.99 -1.26 M-0.55 189.45 C37.56 146.45, 76.16 102.48, 164.57 0.49 M0.05 194.39 C59.1 127.46, 119.8 56.95, 168.38 -0.99 M0.32 194.45 C50.24 138.04, 99.45 82.2, 169.07 0.54 M-0.17 198.28 C70.46 122.2, 136.94 45.28, 173.6 1.17 M0.63 199.95 C67.51 120.76, 134.31 43.47, 175.21 -0.16 M8.4 199.5 C44.82 155.43, 83.61 110.08, 179.62 1.66 M6.83 199.91 C71.58 123.16, 138.64 47.37, 180.31 0.84 M10.67 198.77 C54.54 149.6, 100.84 97.55, 185.45 -0.76 M11.78 199.63 C72.6 129.43, 133.39 59.05, 186.04 -0.01 M18.27 199.28 C82.03 124.71, 146.37 47.87, 191.35 1.3 M16.37 200.65 C61.13 149.05, 106.69 97.3, 190.17 0.85 M23.84 201.12 C83.42 131.64, 143.62 60.22, 195.97 -0.9 M22.15 200.23 C65.9 153.12, 107 103.81, 196.66 -0.86 M28.8 200.68 C71.29 148.65, 114.37 100.14, 201.81 -0.52 M27.98 200.61 C79.21 141.62, 130.83 81.98, 201.12 0.51 M33.41 198.35 C84.73 139.12, 136.46 80.53, 205.98 0.09 M33.13 199.6 C93.17 131.42, 152.69 62.04, 207.25 -0.69 M39.15 201.64 C83.08 148.91, 126.96 97.56, 212.03 -1.11 M38.53 200.47 C98.89 131.76, 159.14 61.9, 212.25 -0.44 M42.59 200.48 C87.13 152.45, 125.72 106.63, 217.53 1.11 M44.28 200.17 C102.57 131.76, 161.47 63.12, 216.98 -0.02 M47.24 198.87 C110.81 125.58, 173.45 55.63, 222.72 0.19 M49.25 200.8 C110.56 129.29, 172.81 57.22, 222.41 0.75 M54.27 199.64 C111.87 135, 169.88 67.45, 224.96 3.63 M54.96 199.45 C100.38 146.33, 148.29 91.95, 226.11 2.67 M58.52 201.34 C112.19 139.47, 167.13 78.19, 227.04 7.09 M58.78 199.6 C114.51 136.84, 170.04 71.99, 226.18 8.64 M64.62 198.58 C107.41 150.2, 151.73 99.1, 224.35 14.84 M64.24 199.5 C127.49 129.32, 187.55 58.21, 224.91 14.09 M70.26 198.36 C108.19 155.62, 149.15 110.94, 225.65 21.31 M69.5 200.3 C127.72 133.7, 186.36 65.46, 225.87 21.11 M75.89 198.05 C129.73 136.01, 186.67 72.91, 226.35 26.4 M75.92 199.05 C114.5 156.08, 153.69 110.22, 225.37 26.58 M80.83 201.65 C117.86 158.8, 151.86 117.51, 224.03 34.23 M81.3 200.52 C114.87 159.61, 151.59 116.83, 225.53 32.47 M86.67 200.22 C117.6 161.48, 146.79 128.1, 224.93 38.66 M87 199.96 C127.02 151.03, 168.04 101.95, 225.73 38.89 M89.76 198.98 C142.59 142.85, 190.16 85.2, 226.32 46.45 M91.1 200.06 C117.59 169.76, 145.14 136.93, 226 45.13 M98.82 197.77 C138.27 150.58, 181.34 104.9, 225.52 51.55 M97.52 198.65 C129.65 159.34, 163.71 121.95, 226.51 50.26 M101.6 197.94 C135.97 163.01, 166.38 125.84, 227.43 58.86 M101.6 199.39 C146.72 147.87, 191.89 96.45, 225.86 56.66 M105.65 199.4 C133.27 171.84, 156.42 146.16, 223.95 65.07 M107.01 198.58 C140.18 162.69, 173.63 123.76, 226.32 63.37 M111.67 199.62 C149.24 155.9, 189.95 111.93, 225.15 68.61 M112.84 199.93 C148.98 154.85, 187.5 110.68, 225.86 69.14 M116.21 199.91 C149.86 162.05, 182.16 127.48, 226.94 76.35 M119.05 199.36 C149.31 163.39, 180.83 127.91, 226.42 75.55 M124.06 199.81 C161.93 159.51, 197.79 113.47, 225.36 82.75 M123.4 199.87 C143.5 175, 164.9 151.06, 226.63 80.5 M126.42 200.19 C156.75 167.31, 183.59 137.65, 224.91 88.25 M128.2 201.05 C165.4 158.57, 201.58 117.39, 226.83 87.11 M132.63 197.88 C161 169.65, 189.47 135.64, 224.8 94.36 M134.59 200.17 C164.56 162.46, 197.17 126.7, 225.8 93.21 M137.73 200.31 C168.35 167.34, 194.99 135.45, 226.54 98.31 M138.7 199.24 C157.7 179.91, 176.74 158.19, 226.99 100.43 M144.78 200.61 C164.77 175.81, 186.64 152.09, 225.71 107.68 M144.46 200.57 C174.81 166.31, 205.06 131.42, 226.72 105.28 M149.16 200.03 C170.92 176.04, 193.06 152.02, 226.05 111.51 M148.53 199.57 C169.56 178.24, 190.21 153.44, 227 112.65 M153.5 198.24 C180.86 172.9, 206.34 140.98, 223.94 118.67 M155.75 199.58 C168.25 184.22, 182.14 166.99, 226.46 118.73 M159.98 199.79 C174.66 183.31, 189.06 168.15, 226.57 125.02 M160.07 200.69 C182.41 173.71, 206.29 148.34, 225.08 124.45 M165.31 200.43 C181.66 181.44, 194.71 166.17, 227.57 131.97 M165.95 200.51 C180.08 183.98, 196.68 164.88, 226.48 130.63 M169 201.49 C189.86 178.55, 208.22 154.27, 226.75 137.19 M171.39 199.04 C187.57 182.91, 202.78 163.95, 226.09 137.02 M176.31 200.28 C192.74 177.51, 213.55 156.79, 224.22 141.65 M177.25 199.43 C195.81 177.59, 213.64 156.87, 225.96 141.83 M182.6 200.45 C194.36 184.13, 209.77 168.13, 224.85 148.07 M180.29 200.84 C193.63 187.75, 204.07 173.72, 225.67 148.6 M188.18 198.35 C200.86 184.83, 212.54 170.54, 224.43 155.97 M186.55 199.21 C201.39 185.11, 213.68 169.43, 225.14 155.72 M190.72 201.43 C198.63 192.99, 206.47 180.4, 225.36 160.37 M192.31 200.1 C200.88 191.05, 207.94 180.56, 226.83 161.47 M196.12 198.6 C206.31 189.56, 214.39 179.09, 224.27 166.38 M197.49 199.49 C207.74 187.81, 218.31 174.65, 225.95 167.18 M202.87 198.62 C208.31 193.54, 216.87 183.22, 226.29 172.28 M202.67 200.6 C210.58 189.37, 219.81 179.62, 225.28 172.67 M208.93 200.45 C212.82 193.34, 218.71 186, 225.39 180 M208.42 198.69 C213.92 190.8, 222 184.07, 226.06 179.16 M212.17 199.68 C218.5 194.16, 222.28 189.27, 226.55 186.12 M212.38 199.9 C217.78 194.58, 222.06 189.94, 224.86 184.82 M217.79 199.09 C221.21 198.33, 222.38 195.8, 225.83 192 M218.58 199.78 C220.72 196.46, 223.98 193.9, 225.75 191.43" stroke="#228be6" stroke-width="0.5" fill="none"></path><path d="M-0.86 -1.26 C87.63 0.29, 178.74 -1.1, 222.29 1.33 M-0.65 0.08 C50.28 1.97, 100 2.17, 223.21 -0.4 M222.21 0.86 C220.25 63.87, 220.71 126.7, 224.38 197.43 M222.88 -0.43 C221.99 61.24, 222.22 122.43, 222.21 199.4 M223.24 198.19 C166.91 201.61, 110.06 201.45, -0.78 198.19 M223.05 198.22 C140.6 198.72, 58.84 198.15, -0.71 198.94 M-0.63 198.14 C-1.76 148.62, 1.03 97.4, 0.94 -1.59 M0.08 197.81 C0.04 147.15, 1.33 96.7, 0.95 0.84" stroke="#000000" stroke-width="1" fill="none"></path></g><g transform="translate(107.09145960481493 189.8949799779184) rotate(0 14.5 12.5)"><text x="14.5" y="18" font-family="Virgil, Segoe UI Emoji" font-size="20px" fill="#000000" text-anchor="middle" style="white-space: pre;" direction="ltr">UC</text></g><g stroke-linecap="round"><g transform="translate(230.2570463425011 128.4901098010455) rotate(0 66.87774853465967 0.020868466543049635)"><path d="M-0.46 -0.54 C21.9 -0.32, 111.76 -0.01, 134.21 0.25 M1.5 1.79 C23.78 1.72, 111.74 -1.32, 133.84 -1.75" stroke="#000000" stroke-width="1" fill="none"></path></g><g transform="translate(230.2570463425011 128.4901098010455) rotate(0 66.87774853465967 0.020868466543049635)"><path d="M105.04 11.1 C115.03 7.9, 124.89 4.28, 134.07 -3.17 M106.3 9.34 C112.28 7.67, 117.39 3.77, 134.82 -2.43" stroke="#000000" stroke-width="1" fill="none"></path></g><g transform="translate(230.2570463425011 128.4901098010455) rotate(0 66.87774853465967 0.020868466543049635)"><path d="M104.47 -9.42 C114.46 -6.3, 124.49 -3.61, 134.07 -3.17 M105.73 -11.17 C111.88 -8.66, 117.1 -8.38, 134.82 -2.43" stroke="#000000" stroke-width="1" fill="none"></path></g></g><g stroke-linecap="round"><g transform="translate(234.18291920962986 178.27039940132408) rotate(0 65.7737835370175 -0.3983964940515534)"><path d="M0.51 1.03 C22.46 0.66, 110.43 -1.35, 132.22 -1.83 M-0.68 0.53 C21.07 0.25, 108.92 -0.45, 131.32 -0.69" stroke="#000000" stroke-width="1" fill="none"></path></g><g transform="translate(234.18291920962986 178.27039940132408) rotate(0 65.7737835370175 -0.3983964940515534)"><path d="M104.94 9.97 C111.68 4.61, 121.45 3.01, 131.27 -1.96 M102.81 9.8 C110.54 7.15, 115.94 4.44, 131.52 -0.99" stroke="#000000" stroke-width="1" fill="none"></path></g><g transform="translate(234.18291920962986 178.27039940132408) rotate(0 65.7737835370175 -0.3983964940515534)"><path d="M104.75 -10.55 C111.63 -8.79, 121.47 -3.27, 131.27 -1.96 M102.62 -10.72 C110.43 -8.75, 115.87 -6.83, 131.52 -0.99" stroke="#000000" stroke-width="1" fill="none"></path></g></g><g stroke-linecap="round"><g transform="translate(231.23591879517483 224.30276679250892) rotate(0 66.32639706525376 0.8831884493166626)"><path d="M0.52 0.95 C22.59 1.05, 111.33 0.28, 133.32 0.09 M-0.66 0.4 C21.18 0.76, 110.47 1.57, 132.47 1.68" stroke="#000000" stroke-width="1" fill="none"></path></g><g transform="translate(231.23591879517483 224.30276679250892) rotate(0 66.32639706525376 0.8831884493166626)"><path d="M105.78 12.04 C115.02 6.69, 125.2 4.1, 132.99 0.75 M104.37 12.18 C113.91 7.13, 124.35 3.5, 131.7 2.6" stroke="#000000" stroke-width="1" fill="none"></path></g><g transform="translate(231.23591879517483 224.30276679250892) rotate(0 66.32639706525376 0.8831884493166626)"><path d="M105.94 -8.48 C115.03 -6.11, 125.15 -0.99, 132.99 0.75 M104.52 -8.35 C114.2 -6.03, 124.59 -2.3, 131.7 2.6" stroke="#000000" stroke-width="1" fill="none"></path></g></g><g stroke-linecap="round"><g transform="translate(234.18291920962986 273.36323279677026) rotate(0 65.3158129635637 -0.44705087276201994)"><path d="M0.24 -0.12 C22.36 -0.28, 110.01 -0.69, 131.73 -0.79 M-1.09 -1.22 C21.01 -1.26, 109.32 0.09, 131.08 0.33" stroke="#000000" stroke-width="1" fill="none"></path></g><g transform="translate(234.18291920962986 273.36323279677026) rotate(0 65.3158129635637 -0.44705087276201994)"><path d="M102.56 11.16 C107.51 7.01, 113.72 6.86, 131.68 0.15 M102.53 9.65 C113.66 5.69, 124.98 3.12, 131.3 -0.17" stroke="#000000" stroke-width="1" fill="none"></path></g><g transform="translate(234.18291920962986 273.36323279677026) rotate(0 65.3158129635637 -0.44705087276201994)"><path d="M102.83 -9.36 C107.75 -9.09, 113.9 -4.84, 131.68 0.15 M102.8 -10.87 C113.64 -6.67, 124.85 -1.1, 131.3 -0.17" stroke="#000000" stroke-width="1" fill="none"></path></g></g><g transform="translate(267.0623158604286 99.91528312162575) rotate(0 30.5 12.5)"><text x="0" y="18" font-family="Virgil, Segoe UI Emoji" font-size="20px" fill="#000000" text-anchor="start" style="white-space: pre;" direction="ltr">fase0</text></g><g stroke-linecap="round" transform="translate(365.34144481148746 97.16619131548327) rotate(0 69.49994413984092 105.22878866243525)"><path d="M0 0 C0 0, 0 0, 0 0 M0 0 C0 0, 0 0, 0 0 M0.41 6.69 C0.58 5.2, 3.02 3.79, 4.78 0.03 M-0.62 6.07 C0.69 5.03, 2.45 4.02, 4.92 0.53 M-0.16 12.05 C2.41 9.5, 7.02 4, 9.39 0.05 M-0.08 11.58 C3.79 7.26, 8.82 3.48, 10.43 -0.81 M0.38 20.01 C5.92 11.68, 11.57 4.1, 14.68 0.41 M-1.02 18.31 C5.13 12.99, 10.76 6.63, 16.54 -0.12 M0.24 23.42 C4.92 16.76, 13.8 10.73, 21.89 -0.07 M0.01 23.89 C5.54 17.72, 11.59 11.83, 21.91 0.64 M1.18 30.32 C10.91 19.82, 18.43 8.98, 26.8 0.95 M-0.74 31.35 C6.54 24.28, 11.96 17.36, 25.27 1.19 M0.12 35.46 C8.96 28.55, 13.62 19.06, 31.86 -0.84 M0.33 36.75 C5.5 29.29, 11.65 22.98, 31.01 -1.1 M0.7 42.89 C8.22 31.57, 19.76 21, 38.23 1.94 M0.25 42.16 C8.3 33.79, 15.67 24.83, 36.07 -0.54 M0.91 48.69 C14.2 32, 33.8 12.45, 40.68 -1.23 M-0.2 48.66 C12.24 35.4, 26.61 20.22, 43.35 -0.35 M-0.63 55.97 C19.73 35, 36.51 12.47, 47.93 -0.4 M0.22 53.98 C19.03 33.8, 37.56 12.43, 46.69 0.2 M-0.34 61.35 C21.36 36.95, 43.49 11.51, 53.59 1.21 M0.17 61.27 C17.96 40.68, 33 22.31, 52.27 0.55 M0.54 66.01 C13.2 52.53, 24.81 38.39, 56.46 1.6 M0.5 66.62 C11.55 54.21, 22.57 40.91, 57.6 -0.28 M-0.35 74.36 C19.21 50.59, 39.06 25.71, 63.43 -1.64 M0.51 72.23 C16.18 54.73, 34.9 33.66, 62.88 -0.95 M1.11 80.64 C25.44 52.76, 46.26 23.81, 69.89 -0.95 M0.12 79.38 C20.68 54.16, 44.39 28.81, 68 1.09 M1.75 84.07 C24.9 56.66, 49.21 30.93, 74.56 -0.44 M0.66 86.02 C20.89 61.77, 41.06 40.01, 73.95 0.35 M-0.48 91.19 C25.8 59.31, 54.9 28.51, 79.9 -1.5 M-0.16 91.6 C30.63 56.87, 60.02 22.84, 79.79 0.17 M-0.31 99.02 C18.41 76.71, 35.92 58.63, 86.94 -0.45 M0.49 98.62 C26.77 65.58, 54.45 33.95, 86.03 -0.53 M-1.51 101.67 C24.47 74.35, 53.54 42.98, 91.71 1.91 M0.81 103.67 C31.17 69.06, 63.02 31.49, 89.62 -0.38 M-1.22 108.95 C31.07 73.98, 59.04 40.72, 96.07 -1.45 M0.57 110.54 C27.7 78.1, 53.56 47.81, 95.35 -0.81 M0.27 117.52 C37.43 73.89, 75.54 29.17, 100.1 -1.3 M-0.1 115.74 C23.1 89.53, 46.92 62.66, 100.82 0.84 M-0.12 121.26 C37.03 80.27, 75.69 34.97, 105 -1.83 M0.22 121.33 C31.75 85.98, 62.62 51.44, 105.86 0.07 M-1.99 126.39 C45.12 78.51, 87.18 29.56, 109.43 1.74 M-0.97 128.5 C42.05 77.13, 84.48 27.75, 111.47 0.06 M2.1 134.07 C25.09 104.45, 51.44 73.2, 115.73 2.26 M0.12 134.59 C43.13 82.7, 88.4 32.32, 116.59 1.22 M-1.6 139.09 C29.14 105.44, 62.58 68.51, 121.6 -0.69 M-0.19 140.18 C42.66 91.27, 85.06 41.93, 122.35 0.25 M2.1 144.92 C48.28 91.16, 94.67 34.23, 127.75 1.81 M-0.3 146.65 C32.21 108.68, 65.76 70.93, 126.25 1.25 M1.57 153.96 C46.54 101.02, 92.43 45.78, 132.14 -0.78 M-0.34 152.96 C33.39 117.21, 64.47 79.16, 132.92 -0.73 M1.25 159.45 C34.43 117.71, 68.38 79.8, 138.08 -0.38 M0.35 159.36 C40.82 112.54, 81.94 64.94, 137.32 0.76 M0.49 162.95 C41.9 115.23, 83.73 68.12, 140.12 2.6 M0.19 164.33 C48.91 109.23, 97.02 52.89, 141.53 1.74 M1.07 172.58 C36.66 129.08, 72.4 87.01, 141.7 6.53 M0.38 171.29 C49.56 115.31, 98.66 58.23, 141.94 7.26 M-0.97 177.38 C35.92 138.22, 66.56 101.41, 141.28 15.8 M0.89 177.04 C47.92 121.45, 95.57 65.67, 140.66 14.56 M-1.6 181.6 C50.34 121.94, 101.25 65.7, 141.24 20.79 M0.62 183.73 C50.08 125.55, 100.69 66.83, 140.9 21.41 M-0.33 189.29 C47.15 136.15, 95.14 80.03, 140.79 27.32 M0.42 189.07 C37.64 145.28, 77.41 100.33, 142.04 26.27 M-0.73 196.37 C44.66 143.92, 91.7 91.89, 142.35 31.35 M-0.45 194.5 C46.88 141.63, 93.83 86.56, 141.42 33.02 M-0.49 200.24 C37.16 157.76, 76.35 112.56, 140.15 38.45 M-0.89 201.21 C55.12 139.37, 107.85 76.58, 140.75 37.66 M0.59 205.29 C34.71 166.88, 72.05 126.49, 140.85 45.71 M-0.2 207.31 C52.43 147.22, 105.41 85.45, 141.09 45.51 M1.62 210.29 C51.6 152.71, 104.77 94.01, 141.59 50.75 M1.65 211.31 C37.45 171.47, 73.91 128.73, 140.58 50.94 M7.22 213.23 C41.64 173.24, 73.03 134.88, 139.86 57.87 M7.7 212.06 C38.68 174.13, 72.82 134.3, 141.41 56.06 M12.45 212.6 C41.05 176.19, 67.65 145.83, 140.01 63 M12.82 212.3 C49.55 166.91, 87.33 121.3, 140.92 63.27 M15.96 210.4 C65.27 158.91, 108.64 105.73, 142.27 70.21 M17.47 211.61 C41.79 183.85, 67.26 153.26, 141.91 68.73 M24.54 210.05 C60.57 166.71, 100.3 124.88, 140.74 75.91 M23.25 210.93 C52.71 174.83, 84.04 140.58, 141.73 74.62 M27.98 209.47 C59.34 177.92, 86.78 144.17, 142.65 83.21 M27.98 210.92 C69.07 164.02, 110.18 117.27, 141.08 81.02 M31.37 211.68 C56.9 186.34, 78.05 162.96, 139.83 88.68 M32.73 210.86 C63.16 178.09, 93.81 142.37, 142.2 86.98 M38.04 211.15 C71.87 171.73, 108.83 132.06, 140.37 92.97 M39.22 211.45 C71.7 170.78, 106.44 130.97, 141.09 93.5 M41.93 212.19 C72.63 177.6, 102.03 146.37, 142.82 99.95 M44.78 211.64 C72.16 178.91, 100.83 146.71, 142.3 99.15 M49.78 212.09 C83.76 176.09, 115.82 134.41, 140.59 107.11 M49.12 212.15 C67.1 189.8, 86.3 168.41, 141.86 104.86 M52.8 211.72 C79.87 182.41, 103.56 156.37, 140.14 112.61 M54.58 212.58 C87.5 174.82, 119.5 138.45, 142.06 111.47 M58.35 210.16 C83.75 185.27, 109.32 154.59, 140.68 117.96 M60.31 212.45 C86.89 178.64, 116.18 146.7, 141.69 116.82 M64.11 211.84 C91.02 183.1, 113.95 155.47, 141.77 122.67 M65.08 210.77 C81.65 194.14, 98.3 175.18, 142.21 124.79 M70.5 212.89 C87.97 191.07, 107.29 170.28, 141.59 131.28 M70.18 212.85 C96.86 182.67, 123.54 151.89, 142.6 128.88 M75.54 211.55 C94.22 191.18, 113.27 170.71, 141.28 135.87 M74.91 211.1 C92.91 193.04, 110.62 171.61, 142.23 137.01 M79.22 210.52 C102.84 189.42, 124.63 161.74, 139.17 143.03 M81.48 211.86 C91.97 198.91, 103.74 184.1, 141.68 143.09 M86.36 211.32 C98.8 197.51, 110.85 185.05, 142.45 148.62 M86.45 212.22 C105.12 189.38, 125.32 168.23, 140.96 148.05 M91.03 212.71 C104.94 196.66, 115.49 184.27, 142.8 156.33 M91.68 212.79 C103.19 199.16, 117.18 183.06, 141.7 154.99 M95.38 213.02 C112.59 194.4, 127.25 174.38, 142.63 160.79 M97.76 210.57 C110.89 197.86, 123.1 182.36, 141.97 160.62 M102.04 212.57 C114.71 194.24, 131.73 177.88, 139.45 166.01 M102.97 211.71 C117.47 194.42, 131.31 178.28, 141.19 166.19 M108.98 211.98 C117.17 199.56, 129.09 187.56, 140.08 172.42 M106.67 212.37 C117.09 202.55, 124.64 191.84, 140.9 172.96 M113.9 210.63 C123.31 200.88, 131.75 190.32, 140.31 179.58 M112.27 211.49 C123.65 201.27, 132.54 189.5, 141.02 179.32 M117.1 212.96 C122.39 207.39, 127.7 197.71, 140.58 184.73 M118.68 211.63 C124.55 205.61, 129 198.13, 142.05 185.83 M121.85 210.88 C128.77 205.49, 133.63 198.73, 140.15 189.98 M123.22 211.77 C129.84 204.41, 136.7 195.51, 141.83 190.78 M129.23 210.21 C131.56 208.65, 136.82 202.15, 141.51 196.66 M129.04 212.09 C132.96 205.53, 138.17 200.35, 140.55 197.03 M134.31 212.31 C135.68 209.32, 138.14 206.18, 140.84 203.97 M134.03 211.34 C136.12 208.11, 139.61 205.52, 141.21 203.51" stroke="#82c91e" stroke-width="0.5" fill="none"></path><path d="M0.93 0.61 C36.04 -0.57, 71.47 0.69, 138.34 0.1 M0.96 0.98 C34.05 1.11, 66.89 0.84, 138.87 -0.37 M138.82 -0.71 C136.5 71.77, 135.51 144.03, 139.12 208.97 M138.98 -0.28 C139.21 83.41, 139.11 164.87, 139.2 210.27 M137.37 208.55 C97.23 211.4, 50.84 211.41, 0.59 212.03 M138.21 209.62 C89.4 210.05, 40.21 209.29, 0.71 211.37 M-0.57 212.14 C-0.32 155.72, 0.11 102.51, 1.7 0.49 M0.39 209.64 C0.43 133.38, 1.19 56.41, -0.46 -0.39" stroke="#000000" stroke-width="1" fill="none"></path></g><g transform="translate(41.59145960481493 317.27497981658007) rotate(0 80 12.5)"><text x="0" y="18" font-family="Virgil, Segoe UI Emoji" font-size="20px" fill="#000000" text-anchor="start" style="white-space: pre;" direction="ltr">microcontrolador</text></g><g transform="translate(396.8413889513283 317.27497981658007) rotate(0 44 12.5)"><text x="0" y="18" font-family="Virgil, Segoe UI Emoji" font-size="20px" fill="#000000" text-anchor="start" style="white-space: pre;" direction="ltr">Potência</text></g><g stroke-linecap="round"><g transform="translate(480.28968070058136 87.4526782249934) rotate(0 -0.35666185269786865 -38.255841734907335)"><path d="M0.3 0.94 C0.2 -12.11, 0.34 -64.27, 0.36 -77.45 M-1 0.39 C-1.31 -12.54, -0.54 -63.04, -0.4 -75.98" stroke="#000000" stroke-width="1" fill="none"></path></g><g transform="translate(480.28968070058136 87.4526782249934) rotate(0 -0.35666185269786865 -38.255841734907335)"><path d="M11.07 -47.07 C5.31 -57.81, 0.38 -70.22, -0.31 -75.2 M9.37 -47.69 C6.94 -56.78, 3.45 -65.43, -0.85 -76.06" stroke="#000000" stroke-width="1" fill="none"></path></g><g transform="translate(480.28968070058136 87.4526782249934) rotate(0 -0.35666185269786865 -38.255841734907335)"><path d="M-9.45 -47.32 C-7.36 -58.02, -4.45 -70.33, -0.31 -75.2 M-11.15 -47.95 C-6.85 -56.77, -3.59 -65.33, -0.85 -76.06" stroke="#000000" stroke-width="1" fill="none"></path></g></g><g transform="translate(500.84600220673144 12.868223895847791) rotate(0 18.5 12.5)"><text x="0" y="18" font-family="Virgil, Segoe UI Emoji" font-size="20px" fill="#000000" text-anchor="start" style="white-space: pre;" direction="ltr">+5V</text></g><g stroke-linecap="round"><g transform="translate(487.70050139571447 303.7082788296582) rotate(0 1.8864133571551065 34.51919742309542)"><path d="M1.19 -1.14 C1.72 10.16, 2.94 57.03, 3.42 68.94 M0.35 0.87 C0.67 12.84, 1.71 58.93, 2.22 70.18" stroke="#000000" stroke-width="1" fill="none"></path></g></g><g stroke-linecap="round"><g transform="translate(471.88192837451015 371.45604273271397) rotate(0 17.94756759079081 0.06225830798030074)"><path d="M-1.16 -0.3 C5.04 -0.16, 30.88 0.12, 37.06 0.06 M0.43 -1.5 C6.5 -1.08, 29.91 1.33, 36.22 1.62" stroke="#000000" stroke-width="1" fill="none"></path></g></g><g transform="translate(499.7304113326029 182.03357012303582) rotate(0 82.77494073229195 3.3884478662341735)" stroke="none"><path fill="#000000" d="M -0.50,-1.50 Q -0.50,-1.50 1.15,-2.10 2.81,-2.70 9.12,-4.56 15.43,-6.43 23.41,-8.60 31.40,-10.78 38.97,-12.80 46.53,-14.83 53.38,-16.52 60.23,-18.21 66.28,-18.94 72.33,-19.66 76.11,-19.67 79.88,-19.69 82.58,-18.21 85.28,-16.73 87.32,-14.02 89.35,-11.31 91.03,-7.90 92.70,-4.50 94.79,-0.02 96.87,4.45 98.32,8.05 99.78,11.65 101.46,14.47 103.14,17.29 104.39,19.03 105.65,20.77 106.97,21.96 108.29,23.14 109.44,23.47 110.59,23.81 112.47,23.22 114.35,22.64 118.82,20.51 123.28,18.39 128.54,15.54 133.81,12.69 139.39,9.54 144.98,6.38 149.60,3.92 154.22,1.46 157.26,-0.39 160.30,-2.24 162.57,-3.63 164.84,-5.01 165.04,-5.10 165.25,-5.18 165.46,-5.19 165.68,-5.20 165.89,-5.15 166.10,-5.09 166.28,-4.97 166.46,-4.85 166.59,-4.68 166.73,-4.51 166.80,-4.30 166.87,-4.10 166.87,-3.88 166.87,-3.66 166.81,-3.45 166.74,-3.25 166.61,-3.07 166.48,-2.90 166.30,-2.78 166.12,-2.65 165.91,-2.59 165.70,-2.53 165.48,-2.54 165.27,-2.55 165.06,-2.63 164.86,-2.71 164.69,-2.85 164.53,-2.99 164.41,-3.17 164.30,-3.36 164.25,-3.57 164.20,-3.78 164.23,-4.00 164.25,-4.22 164.34,-4.41 164.43,-4.61 164.57,-4.77 164.72,-4.93 164.91,-5.03 165.11,-5.14 165.32,-5.17 165.53,-5.21 165.75,-5.18 165.96,-5.14 166.16,-5.04 166.35,-4.94 166.50,-4.79 166.65,-4.63 166.74,-4.43 166.84,-4.24 166.86,-4.02 166.89,-3.81 166.84,-3.59 166.80,-3.38 166.69,-3.19 166.58,-3.01 166.41,-2.86 166.25,-2.72 166.25,-2.72 166.25,-2.72 163.98,-1.33 161.72,0.06 158.62,1.97 155.52,3.88 150.94,6.34 146.36,8.80 140.76,12.00 135.17,15.19 129.86,18.11 124.55,21.03 119.84,23.31 115.14,25.58 112.47,26.19 109.80,26.81 108.10,26.02 106.41,25.23 104.96,23.78 103.51,22.32 102.19,20.48 100.87,18.64 99.09,15.64 97.32,12.64 95.89,9.11 94.46,5.57 92.39,1.12 90.31,-3.32 88.75,-6.53 87.18,-9.73 85.52,-12.09 83.86,-14.45 81.78,-15.73 79.71,-17.00 76.19,-16.96 72.67,-16.91 66.79,-16.19 60.91,-15.46 54.10,-13.74 47.29,-12.02 39.75,-9.95 32.20,-7.88 24.27,-5.64 16.35,-3.41 10.11,-1.47 3.86,0.47 2.18,0.99 0.50,1.50 0.31,1.54 0.12,1.58 -0.06,1.57 -0.25,1.57 -0.44,1.51 -0.62,1.46 -0.79,1.36 -0.95,1.27 -1.09,1.13 -1.23,1.00 -1.33,0.84 -1.43,0.68 -1.49,0.49 -1.55,0.31 -1.57,0.12 -1.58,-0.06 -1.55,-0.25 -1.52,-0.44 -1.45,-0.61 -1.37,-0.79 -1.26,-0.94 -1.14,-1.10 -0.99,-1.22 -0.84,-1.34 -0.67,-1.42 -0.50,-1.50 -0.50,-1.50 L -0.50,-1.50 Z"></path></g><g transform="translate(497.3100914281499 198.00768149242526) rotate(0 82.77494073229195 3.3884478662341735)" stroke="none"><path fill="#000000" d="M -0.50,-1.50 Q -0.50,-1.50 1.15,-2.10 2.81,-2.70 9.12,-4.56 15.43,-6.43 23.41,-8.60 31.40,-10.78 38.97,-12.80 46.53,-14.83 53.38,-16.52 60.23,-18.21 66.28,-18.94 72.33,-19.66 76.11,-19.67 79.88,-19.69 82.58,-18.21 85.28,-16.73 87.32,-14.02 89.35,-11.31 91.03,-7.90 92.70,-4.50 94.79,-0.02 96.87,4.45 98.32,8.05 99.78,11.65 101.46,14.47 103.14,17.29 104.39,19.03 105.65,20.77 106.97,21.96 108.29,23.14 109.44,23.47 110.59,23.81 112.47,23.22 114.35,22.64 118.82,20.51 123.28,18.39 128.54,15.54 133.81,12.69 139.39,9.54 144.98,6.38 149.60,3.92 154.22,1.46 157.26,-0.39 160.30,-2.24 161.55,-3.13 162.80,-4.01 163.04,-4.11 163.27,-4.20 163.52,-4.22 163.77,-4.23 164.02,-4.17 164.26,-4.10 164.47,-3.96 164.68,-3.82 164.83,-3.62 164.99,-3.43 165.07,-3.19 165.15,-2.95 165.15,-2.70 165.15,-2.45 165.08,-2.21 165.00,-1.97 164.85,-1.77 164.70,-1.56 164.49,-1.42 164.28,-1.28 164.04,-1.21 163.80,-1.14 163.55,-1.15 163.29,-1.16 163.06,-1.25 162.83,-1.35 162.63,-1.51 162.44,-1.67 162.31,-1.88 162.18,-2.10 162.12,-2.34 162.06,-2.59 162.09,-2.84 162.11,-3.09 162.22,-3.32 162.32,-3.55 162.49,-3.73 162.67,-3.92 162.89,-4.04 163.11,-4.16 163.36,-4.20 163.60,-4.24 163.85,-4.20 164.10,-4.16 164.32,-4.05 164.55,-3.93 164.72,-3.75 164.90,-3.57 165.00,-3.34 165.11,-3.11 165.14,-2.86 165.17,-2.61 165.12,-2.37 165.07,-2.12 164.94,-1.90 164.81,-1.69 164.62,-1.52 164.43,-1.36 164.43,-1.36 164.43,-1.36 163.07,-0.64 161.72,0.06 158.62,1.97 155.52,3.88 150.94,6.34 146.36,8.80 140.76,12.00 135.17,15.19 129.86,18.11 124.55,21.03 119.84,23.31 115.14,25.58 112.47,26.19 109.80,26.81 108.10,26.02 106.41,25.23 104.96,23.78 103.51,22.32 102.19,20.48 100.87,18.64 99.09,15.64 97.32,12.64 95.89,9.11 94.46,5.57 92.39,1.12 90.31,-3.32 88.75,-6.53 87.18,-9.73 85.52,-12.09 83.86,-14.45 81.78,-15.73 79.71,-17.00 76.19,-16.96 72.67,-16.91 66.79,-16.19 60.91,-15.46 54.10,-13.74 47.29,-12.02 39.75,-9.95 32.20,-7.88 24.27,-5.64 16.35,-3.41 10.11,-1.47 3.86,0.47 2.18,0.99 0.50,1.50 0.31,1.54 0.12,1.58 -0.06,1.57 -0.25,1.57 -0.44,1.51 -0.62,1.46 -0.79,1.36 -0.95,1.27 -1.09,1.13 -1.23,1.00 -1.33,0.84 -1.43,0.68 -1.49,0.49 -1.55,0.31 -1.57,0.12 -1.58,-0.06 -1.55,-0.25 -1.52,-0.44 -1.45,-0.61 -1.37,-0.79 -1.26,-0.94 -1.14,-1.10 -0.99,-1.22 -0.84,-1.34 -0.67,-1.42 -0.50,-1.50 -0.50,-1.50 L -0.50,-1.50 Z"></path></g><g stroke-linecap="round" transform="translate(662.3759089118432 108.45584502766519) rotate(0 62.92831751577751 62.92831751577751)"><path d="M17.68 19.34 C17.68 19.34, 17.68 19.34, 17.68 19.34 M17.68 19.34 C17.68 19.34, 17.68 19.34, 17.68 19.34 M6.87 40.63 C14.19 33.58, 21.31 22.33, 30.38 12.34 M5.31 40.25 C13.4 30.96, 21.52 22.44, 28.97 11.19 M4.74 48.84 C13.96 35.96, 24.9 20.36, 41.72 5.15 M4.44 47.85 C15.5 34.67, 25.55 21.89, 40.62 3.34 M5.15 53.21 C11.37 45.09, 24.15 33.81, 45.49 4.5 M4.68 54.21 C12.93 41.57, 23.46 30.57, 47.28 4.34 M5.03 58.7 C21.51 40.49, 40.93 16.96, 54.02 3.35 M3.48 60.2 C18.94 43.66, 32.81 27, 52.09 3.37 M2.33 67.22 C20.44 46.71, 35.51 27.63, 58.06 5.56 M2.58 66.73 C18.21 49.18, 34.31 30.38, 57.03 3.54 M4.98 74.79 C20.46 51.44, 42.66 28.87, 63.61 5.45 M3.62 72.32 C15.17 58.32, 28.81 42.7, 62.25 3.87 M5.81 78.38 C28.72 50.4, 53.25 23.5, 68.25 6.19 M3.55 78.43 C22.49 55.1, 41.89 34.77, 66.99 4.15 M4.9 80.06 C34.48 49.9, 59.71 19.06, 73.34 0.63 M5.62 81.99 C30.7 52.69, 55.77 23.74, 74.38 2.15 M9.17 85.11 C21.32 68.59, 35.31 53.11, 77.87 5.27 M7.49 85.99 C33.93 55.38, 59.91 26.81, 77.75 4.1 M10.71 89.65 C29.83 66.21, 49.61 43.36, 81.07 5.01 M10.08 89.53 C25.31 69.87, 43.81 49.16, 81.92 5.82 M12.31 93.02 C35.06 65.28, 63.89 34.9, 85.68 6.14 M11.75 92.62 C29.37 73.26, 45.83 55.06, 86.97 8.15 M14.55 97.14 C35.35 72.11, 58.76 45.41, 90.73 8.38 M13.91 98.03 C37.58 70.05, 62.26 42.54, 89.58 9.47 M12.66 103.17 C37 72.26, 63.75 45.32, 95.25 11.54 M14.41 102.33 C40.53 71.44, 68.39 41.36, 95.31 10.77 M15.46 106.3 C44.46 75.95, 70.57 46.72, 97.87 14.19 M17.11 105.14 C37.39 82.28, 57.71 59.25, 98.79 12.72 M19.78 108.5 C38.32 85.27, 54.49 64.47, 103.08 12.68 M20.81 108.34 C37.43 87.28, 55.48 68.27, 102.51 13.24 M23.31 110.54 C44.83 85.29, 66.44 63.97, 104.29 17.13 M24.67 110.49 C44.94 85.17, 65.88 61.15, 104.43 17.78 M25.6 113.69 C52.47 83.59, 77.35 54.07, 105.96 21.96 M27.8 112.99 C45.52 91.07, 63.48 69.61, 106.74 20.41 M29.65 115.54 C50.77 88.65, 72.75 64.85, 110.69 21.81 M29.38 114.3 C59.47 80.86, 91.35 46.04, 109.42 24.1 M32.89 117.38 C52.13 94.38, 72.94 71.04, 110.8 25.68 M32.25 117.85 C54.31 90.11, 76.99 64.26, 112.46 27.34 M37.5 119.85 C53.19 97.14, 71.82 76.24, 114.61 28.51 M35.72 120.03 C64.72 86.17, 94.31 51.98, 114.66 30.15 M39.98 123.33 C60.31 98.96, 79.15 76.75, 117.45 34.6 M39.75 123.04 C64.69 93.51, 90.45 63.59, 117.22 33.92 M42.78 121.99 C62.91 102.23, 80.19 80.09, 119.21 37.45 M43.16 123.42 C60.56 104.13, 77.27 85.13, 119.85 35.7 M49.36 123.76 C69.39 102.93, 89.73 77.33, 124 38.41 M49.2 124.42 C77.06 91.5, 105.53 59.64, 122.99 39.3 M54.34 124.89 C73.83 99.21, 97.56 75.54, 121.86 43.57 M54.3 125 C71.71 104.36, 90.4 82.87, 122.06 44.57 M58.55 125.86 C77.69 103.34, 93.02 81.83, 124.84 48.04 M57.67 126.19 C81.47 98.31, 104.64 72.61, 124.16 50.2 M63.93 125.71 C80.48 106.62, 98.1 84.35, 126.17 52.46 M62.77 125.86 C76.25 111.02, 89.2 94.29, 125.73 54.57 M66.55 127.72 C78.96 111.3, 91.67 98.47, 126.45 58.03 M66.88 126.81 C81.31 111.93, 93.85 96.7, 125.37 59.31 M76.12 124.98 C91.97 102.78, 110.21 85.8, 126.61 63.67 M75.19 122.81 C95.7 99.16, 115.15 77.13, 127.33 64.82 M82.51 121.61 C99.25 103.47, 116.59 86.24, 129.59 70.38 M83.86 120.22 C95.11 106.65, 107.01 94.02, 127.73 69.14 M93.14 119.5 C100.28 109.14, 105.13 101.03, 125.97 78.19 M91.99 117.24 C100.23 107.63, 107.71 98.51, 124.81 79.23 M95.39 119.05 C108.54 107.63, 114.35 96.74, 123.42 88.86 M96.6 117.01 C101.67 110.57, 109.15 103.82, 122.88 88.27" stroke="#868e96" stroke-width="0.5" fill="none"></path><path d="M73.41 1.86 C82.7 2.55, 93.64 7.08, 101.32 12.92 C109 18.75, 115.45 27.85, 119.48 36.86 C123.5 45.86, 125.91 57.15, 125.48 66.96 C125.05 76.77, 121.99 87.56, 116.9 95.72 C111.82 103.87, 103.19 110.91, 94.98 115.91 C86.77 120.91, 77.17 124.81, 67.63 125.73 C58.1 126.65, 46.84 125.48, 37.78 121.43 C28.72 117.37, 19.44 109.07, 13.26 101.4 C7.09 93.73, 2.63 84.78, 0.73 75.43 C-1.18 66.09, -1.05 54.73, 1.82 45.33 C4.69 35.92, 10.95 26.15, 17.96 19.01 C24.97 11.88, 33.06 5.28, 43.87 2.54 C54.67 -0.21, 74.8 1.56, 82.78 2.54 C90.76 3.52, 92.2 7.35, 91.74 8.43 M40.11 4.37 C48.36 0.27, 58.99 -1.12, 68.74 -0.16 C78.49 0.79, 90.3 4.35, 98.64 10.1 C106.98 15.84, 114.44 25.8, 118.79 34.3 C123.15 42.8, 124.72 51.32, 124.76 61.11 C124.8 70.89, 123.36 84.19, 119.04 93.02 C114.72 101.84, 107.01 108.48, 98.85 114.06 C90.69 119.63, 79.46 125.3, 70.08 126.48 C60.71 127.65, 51.59 124.84, 42.6 121.1 C33.6 117.36, 22.89 111.27, 16.12 104.03 C9.36 96.8, 4.66 87.03, 2.02 77.69 C-0.62 68.36, -2.08 57.26, 0.29 48.03 C2.66 38.8, 9.82 29.7, 16.22 22.31 C22.61 14.92, 34.58 6.4, 38.66 3.69 C42.75 0.97, 40.24 4.79, 40.73 6.04" stroke="#000000" stroke-width="1" fill="none"></path></g><g transform="translate(696.8042264276207 317.27497981658007) rotate(0 28.5 12.5)"><text x="0" y="18" font-family="Virgil, Segoe UI Emoji" font-size="20px" fill="#000000" text-anchor="start" style="white-space: pre;" direction="ltr">motor</text></g><g transform="translate(271.5623158604286 155.6195283673643) rotate(0 26 12.5)"><text x="0" y="18" font-family="Virgil, Segoe UI Emoji" font-size="20px" fill="#000000" text-anchor="start" style="white-space: pre;" direction="ltr">fase1</text></g><g transform="translate(267.0623158604286 202.67576453060474) rotate(0 30.5 12.5)"><text x="0" y="18" font-family="Virgil, Segoe UI Emoji" font-size="20px" fill="#000000" text-anchor="start" style="white-space: pre;" direction="ltr">fase2</text></g><g transform="translate(267.5623158604286 249.8430317334637) rotate(0 30 12.5)"><text x="0" y="18" font-family="Virgil, Segoe UI Emoji" font-size="20px" fill="#000000" text-anchor="start" style="white-space: pre;" direction="ltr">fase3</text></g><g stroke-linecap="round" transform="translate(222.74337443063052 116.50036348062395) rotate(0 10.89766978030741 11.888367033062707)"><path d="M13.26 -0.05 C15.47 0.42, 17.86 2.98, 19.41 5.26 C20.96 7.53, 22.62 11.1, 22.57 13.61 C22.52 16.12, 21 18.77, 19.13 20.32 C17.25 21.88, 13.83 22.58, 11.31 22.93 C8.78 23.27, 5.75 23.63, 3.96 22.38 C2.17 21.13, 1.04 17.87, 0.54 15.44 C0.03 13.01, 0.03 10, 0.94 7.79 C1.84 5.58, 3.6 3.3, 5.98 2.19 C8.35 1.07, 13.17 1.04, 15.17 1.11 C17.17 1.18, 17.98 2.41, 17.98 2.6 M14.73 0.98 C16.63 1.3, 17.19 3.05, 18.47 4.94 C19.76 6.83, 22.28 9.75, 22.41 12.31 C22.55 14.87, 21.22 18.57, 19.29 20.28 C17.36 22, 13.48 22.26, 10.83 22.59 C8.18 22.93, 5.23 23.78, 3.4 22.31 C1.57 20.85, 0.37 16.12, -0.13 13.79 C-0.63 11.46, -0.75 10.31, 0.41 8.36 C1.57 6.41, 4.73 3.45, 6.85 2.08 C8.97 0.7, 11.85 0.24, 13.14 0.09 C14.44 -0.05, 14.54 1.03, 14.6 1.22" stroke="none" stroke-width="0" fill="#000000"></path><path d="M13.49 0.01 C15.52 0.37, 17.03 3.24, 18.55 5.33 C20.06 7.41, 22.54 10.21, 22.57 12.51 C22.6 14.81, 20.52 17.35, 18.72 19.13 C16.92 20.91, 14.08 22.66, 11.77 23.18 C9.46 23.7, 6.9 23.45, 4.89 22.24 C2.87 21.03, 0.49 18.46, -0.32 15.94 C-1.13 13.43, -1.11 9.45, 0.03 7.14 C1.16 4.83, 3.98 3.18, 6.48 2.09 C8.99 0.99, 13.55 0.72, 15.04 0.56 C16.52 0.41, 15.45 0.99, 15.39 1.15 M9.14 0.69 C11.15 0.21, 14.05 0.9, 15.91 2.02 C17.76 3.15, 19.25 4.97, 20.28 7.45 C21.3 9.92, 22.89 14.38, 22.05 16.89 C21.21 19.39, 17.51 21.21, 15.23 22.46 C12.95 23.71, 10.61 24.88, 8.36 24.38 C6.11 23.89, 3.1 21.45, 1.75 19.48 C0.39 17.51, 0.16 15.37, 0.21 12.59 C0.26 9.8, 0.44 5.07, 2.04 2.77 C3.64 0.48, 8.8 -0.77, 9.8 -1.19 C10.8 -1.61, 8.07 -0.27, 8.05 0.26" stroke="#000000" stroke-width="1" fill="none"></path></g><g stroke-linecap="round" transform="translate(220.04322028193712 167.09588012851077) rotate(0 10.89766978030741 11.888367033062764)"><path d="M11.31 0.8 C13.51 0.44, 16.55 0.35, 18.27 1.91 C19.99 3.48, 21.34 7.48, 21.65 10.18 C21.95 12.89, 21.25 16.13, 20.1 18.14 C18.96 20.15, 17.05 21.56, 14.78 22.23 C12.51 22.9, 8.64 22.93, 6.49 22.14 C4.33 21.36, 3.08 19.62, 1.87 17.52 C0.66 15.42, -1.24 11.91, -0.77 9.54 C-0.29 7.17, 2.44 4.94, 4.71 3.32 C6.98 1.7, 11.38 0.16, 12.83 -0.16 C14.28 -0.49, 13.47 1.1, 13.42 1.37 M8.43 -0.46 C10.84 -0.93, 15.75 0.72, 17.79 2.37 C19.83 4.03, 19.95 7.1, 20.68 9.47 C21.42 11.83, 23.02 14.46, 22.2 16.56 C21.39 18.67, 17.92 21.17, 15.8 22.11 C13.67 23.06, 11.61 22.56, 9.48 22.22 C7.34 21.87, 4.48 22.06, 3.01 20.05 C1.54 18.04, 0.63 12.89, 0.65 10.16 C0.67 7.42, 1.63 5.07, 3.11 3.63 C4.59 2.19, 8.34 2.2, 9.52 1.52 C10.7 0.84, 10.28 -0.22, 10.22 -0.44" stroke="none" stroke-width="0" fill="#000000"></path><path d="M9.68 -0.03 C11.97 -0.58, 15.26 0.15, 17.23 1.46 C19.2 2.76, 20.96 5.17, 21.5 7.8 C22.04 10.43, 21.33 14.88, 20.45 17.24 C19.58 19.59, 18.23 20.93, 16.23 21.93 C14.24 22.93, 10.74 23.79, 8.49 23.24 C6.25 22.69, 4.14 20.59, 2.75 18.62 C1.36 16.64, 0.01 13.93, 0.16 11.38 C0.31 8.82, 1.85 5.12, 3.64 3.29 C5.42 1.45, 9.34 0.94, 10.87 0.36 C12.4 -0.23, 12.69 -0.39, 12.8 -0.23 M14.12 -0.26 C16.2 0.01, 18.65 2.43, 19.83 4.51 C21.02 6.58, 21.27 9.42, 21.21 12.2 C21.16 14.99, 20.74 19.24, 19.48 21.24 C18.22 23.24, 16.02 24.29, 13.66 24.19 C11.29 24.08, 7.68 22.3, 5.29 20.59 C2.89 18.88, -0.12 16.13, -0.7 13.92 C-1.29 11.71, 0.6 9.42, 1.76 7.32 C2.92 5.21, 4.17 2.49, 6.27 1.31 C8.38 0.13, 12.97 0.48, 14.38 0.22 C15.8 -0.03, 15 -0.54, 14.77 -0.23" stroke="#000000" stroke-width="1" fill="none"></path></g><g stroke-linecap="round" transform="translate(221.6603901686659 213.34693888895572) rotate(0 10.89766978030741 11.88836703306265)"><path d="M14.33 0.77 C16.32 1.13, 17.57 2.98, 18.89 4.92 C20.2 6.87, 22.16 9.89, 22.2 12.44 C22.23 15, 20.94 18.48, 19.11 20.24 C17.28 21.99, 13.78 22.65, 11.24 22.97 C8.7 23.28, 5.73 23.58, 3.87 22.13 C2 20.67, 0.6 16.62, 0.05 14.25 C-0.49 11.88, -0.51 10, 0.59 7.93 C1.68 5.85, 4.25 2.99, 6.61 1.79 C8.96 0.58, 12.98 0.62, 14.71 0.69 C16.44 0.76, 16.96 2.02, 16.97 2.21 M8.24 0.92 C10.29 0.41, 14.12 -0.61, 16.37 0.73 C18.63 2.07, 21 6.43, 21.76 8.96 C22.51 11.5, 21.88 13.53, 20.93 15.93 C19.97 18.34, 18.18 21.94, 16.04 23.39 C13.91 24.84, 10.1 25.16, 8.1 24.65 C6.09 24.15, 5.49 22.45, 4.02 20.36 C2.54 18.27, -0.49 14.84, -0.75 12.13 C-1 9.42, 0.67 6.02, 2.49 4.09 C4.32 2.15, 9.29 1.28, 10.22 0.53 C11.15 -0.22, 8.45 -0.73, 8.06 -0.4" stroke="none" stroke-width="0" fill="#000000"></path><path d="M9.2 0.5 C11.26 0.01, 14.24 0.74, 16.14 1.94 C18.04 3.14, 19.67 5.22, 20.6 7.68 C21.53 10.14, 22.56 14.22, 21.71 16.68 C20.86 19.14, 17.72 21.19, 15.51 22.42 C13.31 23.66, 10.73 24.6, 8.47 24.1 C6.21 23.6, 3.34 21.38, 1.95 19.41 C0.56 17.43, 0.09 14.95, 0.14 12.24 C0.2 9.54, 0.44 5.37, 2.28 3.18 C4.12 0.99, 9.64 -0.39, 11.17 -0.88 C12.7 -1.36, 11.51 -0.14, 11.48 0.28 M13.3 0.65 C15.33 0.95, 18.29 2.47, 19.64 4.65 C20.98 6.84, 21.36 10.88, 21.37 13.75 C21.37 16.63, 21.21 20.18, 19.68 21.91 C18.15 23.64, 14.91 24.38, 12.18 24.12 C9.44 23.86, 5.49 21.77, 3.28 20.36 C1.08 18.95, -0.71 17.9, -1.05 15.66 C-1.39 13.43, -0.03 9.25, 1.22 6.97 C2.48 4.7, 4.39 2.87, 6.49 2.01 C8.58 1.16, 12.69 2.11, 13.78 1.86 C14.87 1.62, 12.96 0.62, 13.03 0.53" stroke="#000000" stroke-width="1" fill="none"></path></g><g stroke-linecap="round" transform="translate(221.33695619132016 260.2448656040922) rotate(0 10.89766978030741 11.888367033062764)"><path d="M13 -0.68 C15.14 -0.52, 17.72 2.38, 19.14 4.5 C20.56 6.62, 21.47 9.68, 21.53 12.02 C21.58 14.37, 21.02 16.78, 19.47 18.55 C17.93 20.31, 14.5 22.05, 12.25 22.61 C10.01 23.18, 8.08 23.06, 6.01 21.93 C3.94 20.79, 0.57 18.05, -0.19 15.82 C-0.95 13.58, 0.45 10.92, 1.45 8.53 C2.46 6.14, 3.69 2.63, 5.85 1.45 C8.01 0.27, 12.59 1.35, 14.41 1.45 C16.23 1.55, 16.83 2.05, 16.76 2.05 M14.51 0.69 C16.81 1.4, 17.72 3.87, 19.16 5.88 C20.6 7.89, 23.22 10.42, 23.15 12.75 C23.09 15.08, 20.45 18.22, 18.77 19.86 C17.09 21.49, 15.28 22.08, 13.08 22.57 C10.88 23.07, 7.59 24.26, 5.56 22.85 C3.54 21.44, 1.71 16.76, 0.95 14.09 C0.2 11.43, 0.18 8.79, 1.03 6.86 C1.87 4.93, 3.83 3.72, 6.02 2.53 C8.2 1.34, 12.98 0.2, 14.13 -0.29 C15.27 -0.78, 12.82 -0.63, 12.9 -0.39" stroke="none" stroke-width="0" fill="#000000"></path><path d="M12.36 -0.41 C14.59 -0.41, 17.38 0.93, 18.87 2.94 C20.36 4.96, 21.09 9.13, 21.3 11.68 C21.51 14.23, 21.43 16.35, 20.16 18.27 C18.88 20.18, 15.9 22.53, 13.66 23.18 C11.42 23.84, 8.83 23.24, 6.74 22.2 C4.64 21.15, 2.05 19.25, 1.11 16.92 C0.17 14.58, 0.63 10.61, 1.1 8.19 C1.57 5.77, 2.1 3.86, 3.95 2.39 C5.79 0.92, 10.51 -0.38, 12.18 -0.63 C13.86 -0.88, 13.8 0.44, 13.99 0.87 M13.16 -0.07 C15.15 0.28, 17.24 1.8, 18.79 4.02 C20.34 6.24, 22.14 10.58, 22.45 13.27 C22.75 15.96, 22.2 18.64, 20.63 20.16 C19.05 21.68, 15.74 22.3, 13 22.4 C10.25 22.49, 6.06 21.79, 4.14 20.71 C2.22 19.63, 2 18.08, 1.47 15.91 C0.94 13.74, 0.14 10.11, 0.99 7.69 C1.84 5.28, 4.34 2.78, 6.57 1.41 C8.8 0.03, 13.34 -0.51, 14.37 -0.57 C15.4 -0.62, 13.08 0.74, 12.76 1.07" stroke="#000000" stroke-width="1" fill="none"></path></g></svg>